<svg xmlns="http://www.w3.org/2000/svg" width="797" height="667" viewBox="0 0 797 667"><title>just_saying</title><ellipse cx="125" cy="160" rx="121" ry="114" fill="#f1f1f1"/><path d="M901.389 668.92q-33.42-5.662-64.281-9.725l8.133-15.769c-2.743-.953-14.792 8.078-14.792 8.078l10.674-45.775c-13.793 1.663-20.806 48.402-20.806 48.402l-15.411-15.802 7.461 17.766c-62.968-7.415-117.349-10.165-163.09-10.264l6.961-13.497c-2.743-.953-14.792 8.078-14.792 8.078l10.674-45.775c-13.793 1.663-20.806 48.402-20.806 48.402l-15.411-15.802 7.902 18.817a916.12 916.12 0 0 0-93.754 6.368c7.041-21.026 30.96-41.023 30.96-41.023-18.267 5.433-27.849 14.537-32.855 23.024a368.671 368.671 0 0 1 21.309-127.381s-37.757 82.162-32.939 137.312l.576 9.793c-32.009 4.583-48.102 9.352-48.102 9.352z" transform="translate(-201.5 -116.5)" fill="#3f3d56"/><path d="M797 582c0 25.405-150.432 85-336 85s-336-59.595-336-85 150.432-7 336-7 336-18.405 336 7z" fill="#3f3d56"/><path d="M797 582c0 25.405-150.432 85-336 85s-336-59.595-336-85 150.432-7 336-7 336-18.405 336 7z" opacity=".1"/><ellipse cx="461" cy="582" rx="336" ry="46" fill="#3f3d56"/><path d="M464.661 58.79c-5.806 17.19-14.709 32.853-32.853 32.853s-31.831-14.738-32.853-32.853c-1.306-23.148 14.29-32.949 32.853-32.853 21.929.113 39.744 12.453 32.853 32.853zM404.703 54.42h53.737v78.314h-53.737z" fill="#2f2e41"/><path fill="#a0616a" d="M389.032 221.109l2.73 20.473 63.466-4.095-3.412-18.426-62.784 2.048zM419.059 100.317s8.189 22.52-7.507 25.933l2.73 18.426 24.568-1.365 17.061-4.777 5.459-9.554s-21.156-10.919-15.014-27.98z"/><path d="M419.059 100.317s8.189 22.52-7.507 25.933l2.73 18.426 24.568-1.365 17.061-4.777 5.459-9.554s-21.156-10.919-15.014-27.98z" opacity=".1"/><path d="M668.33 306.217l1.365 51.865a49.002 49.002 0 0 0 14.331 17.061c9.554 6.824 36.169 16.378 36.169 16.378s24.568 30.027 27.98 9.554l-21.156-23.203s-30.71-24.568-32.757-29.345-4.095-34.804-3.412-41.629l-22.52-.682z" transform="translate(-201.5 -116.5)" fill="#a0616a"/><path fill="#a0616a" d="M387.667 459.961l16.379 80.528 17.061-2.73-4.095-77.798h-29.345zM465.465 457.232l34.122 66.196 15.696-5.46-17.744-75.068-32.074 14.332zM377.431 184.94l-4.777 45.041-55.96 51.865s-37.534 23.203-17.061 27.98l30.027-19.108 60.737-40.946s2.73-60.054 0-62.784l-12.966-2.047z"/><path d="M462.735 126.932s-16.378 9.554-32.757 6.142l-19.108-8.189s-21.156 3.412-23.203 11.601v20.473s-18.426 19.791-2.73 43.676l3.412 27.98s46.406-6.824 57.325 0l14.331 1.365 7.507-33.439 23.885-52.548s0-6.824-12.966-10.919l-15.696-6.142zM482.526 137.851l8.872 6.824s8.872 48.453 1.365 49.818-32.075 4.777-32.075 0l21.838-56.642zM392.444 133.757h-4.777s-16.378 11.601-19.108 24.568-10.237 26.615-4.095 27.98 24.568 6.824 27.297 4.777l.682-57.325z" fill="#6c63ff"/><path d="M456.849 232.048l-67.816-.02-2.73 10.237s-96.906 168.562-81.892 184.94 18.426 5.459 21.838 16.378 24.568 34.122 38.216 32.075 55.96-10.237 80.527 0 86.669-15.696 86.669-23.885l-73.021-210.19zM422.471 534.347l-23.203 6.142s7.507 15.014 0 22.52-15.696 27.98-3.412 28.662l25.25-7.507v-7.507h6.142l6.142-3.412s-.682-12.284 0-14.331-3.412-18.426-6.142-18.426l-4.777-6.142zM517.33 513.191l-23.885 7.507s10.919 32.075 10.237 37.534-1.365 34.122 11.601 33.439 18.426-14.331 19.108-15.696l-2.73-12.966 2.73-4.095 2.047-2.73s-1.365-3.412-4.777-12.966l-9.554-11.601z" fill="#2f2e41"/><circle cx="431.808" cy="19.885" r="12.968" fill="#2f2e41"/><path d="M617.746 129.468a12.969 12.969 0 0 1 11.672-12.903c-.427-.042-.859-.065-1.297-.065a12.968 12.968 0 1 0 0 25.937c.438 0 .87-.023 1.297-.065a12.969 12.969 0 0 1-11.672-12.903z" transform="translate(-201.5 -116.5)" fill="#2f2e41"/><circle cx="432.708" cy="85.304" r="28.662" fill="#a0616a"/><path d="M623.768 166.213s-.271-1.507-10.861 2.464-16.939 33.279-11.644 50.489c2.134 6.935.398 11.936-2.435 15.435-10.632 13.129-6.447 32.849 9.04 39.601q.656.286 1.338.565l6.619 3.971s-8.438-11.103-4.215-25.305a72.817 72.817 0 0 0 1.314-37.277c-.484-2.08-1.035-4.224-1.66-6.412-5.295-18.534-2.72-16.393 15.814-34.927 0 0 10.591 7.943 19.857 11.914s17.21 7.943 10.591 21.181-22.505 25.153-11.914 42.363 11.914 10.591 10.591 17.21l-1.324 6.619 7.943-7.943-5.295 10.591s17.21 0 22.505-13.238l2.648 2.648s10.591-18.534-9.267-35.743c0 0-6.619-3.971 2.648-17.21s2.15-41.701-9.765-46.996h-42.527zM510.121 416.219l-100.102-29.844a152.88 152.88 0 0 1-66.52 15.125c-78.299 0-142-58.318-142-130s63.701-130 142-130 142 58.318 142 130c0 36.187-16.613 70.913-45.625 95.475zm-100.278-31.983l.375.111 88.662 26.434-62.291-43.667 1.007-.837c29.173-24.226 45.904-58.771 45.904-94.776 0-70.58-62.804-128-140-128s-140 57.42-140 128 62.804 128 140 128a150.823 150.823 0 0 0 65.992-15.092z" transform="translate(-201.5 -116.5)" fill="#2f2e41"/><circle cx="94.5" cy="162.5" r="11" fill="#6c63ff"/><circle cx="126.5" cy="162.5" r="11" fill="#6c63ff"/><circle cx="158.5" cy="162.5" r="11" fill="#6c63ff"/></svg>