<svg xmlns="http://www.w3.org/2000/svg" xmlns:xlink="http://www.w3.org/1999/xlink" width="789.99" height="731" viewBox="0 0 789.99 731"><defs><linearGradient id="a" x1="461.46" y1="792.95" x2="746" y2="121.07" gradientTransform="translate(-13.63 -2.04) rotate(-.14)" gradientUnits="userSpaceOnUse"><stop offset="0" stop-color="#808080" stop-opacity=".25"/><stop offset=".54" stop-color="#808080" stop-opacity=".12"/><stop offset="1" stop-color="#808080" stop-opacity=".1"/></linearGradient><linearGradient id="b" x1="533.21" y1="688.58" x2="533.21" y2="490.28" xlink:href="#a"/><linearGradient id="c" x1="-602.79" y1="427.8" x2="-602.79" y2="229.5" gradientTransform="matrix(-1 0 0 1 48 0)" xlink:href="#a"/><linearGradient id="d" x1="376.5" y1="427.5" x2="376.5" y2="242.61" xlink:href="#a"/><linearGradient id="e" x1="3313.5" y1="702.5" x2="3313.5" y2="517.61" gradientTransform="matrix(-1 0 0 1 4122 0)" xlink:href="#a"/></defs><title>chating</title><path d="M756.67 128.49l-332.5.81a13.66 13.66 0 0 0-13.63 13.7l1.51 621.89a13.66 13.66 0 0 0 13.7 13.63l332.5-.81a13.66 13.66 0 0 0 13.63-13.71l-1.51-621.89a13.66 13.66 0 0 0-13.7-13.62z" transform="translate(-205 -84.5)" fill="url(#a)" opacity=".5"/><rect x="416.16" y="137.38" width="350.11" height="631.95" rx="13.64" ry="13.64" transform="translate(-206.11 -83.06) rotate(-.14)" fill="#fff"/><path d="M678.43 153a28.38 28.38 0 0 1-27.91 24.21l-120.93.29a28.38 28.38 0 0 1-28-24.07l-64.05.16a13.3 13.3 0 0 0-13.27 13.33l1.39 573.67a13.3 13.3 0 0 0 13.34 13.27l306-.74a13.3 13.3 0 0 0 13.27-13.33l-1.39-573.67a13.3 13.3 0 0 0-13.33-13.27z" transform="translate(-205 -84.5)" fill="#6c63ff" opacity=".4"/><rect x="548.33" y="160.81" width="78.02" height="4.88" rx="2" ry="2" transform="translate(-207.39 -75.65) rotate(-.86)" fill="#dbdbdb"/><circle cx="642.91" cy="161.92" r="2.93" transform="translate(-207.37 -74.82) rotate(-.86)" fill="#dbdbdb"/><path d="M632.07 589.13a98.85 98.85 0 1 0-154 82l.06.44a33.84 33.84 0 0 0 11.21 7.13l.13-.44c4.63 4 24.12 10.33 46.51 10.27h.49c14.18 0 29.58-2.5 43.12-9.83 0 0 .12-.26.3-.75a35.21 35.21 0 0 0 9.32-6.38l.16-1.12a98.74 98.74 0 0 0 42.7-81.32z" transform="translate(-205 -84.5)" fill="url(#b)" opacity=".5"/><circle cx="328.21" cy="504.64" r="95.89" fill="#f5f5f5"/><path d="M496.58 628.57s-22.85 1.87-16.8 43.49a32.82 32.82 0 0 0 10.87 6.94l12.85-43.49zM570.72 628.57s22.85 1.87 16.8 43.49a32.82 32.82 0 0 1-10.87 6.94l-12.85-43.51z" transform="translate(-205 -84.5)" fill="#fda57d"/><path d="M292.57 475.86s-10.87 31.64-16.8 28.64c0 0 57.22 49.43 107.75 0 0 0-8.9-15.82-21.75-28.67z" fill="#333"/><circle cx="329.25" cy="472.89" r="42.51" fill="#333"/><path d="M570.28 628.57h-74.13l-6.92 29.66s-4.06 13.73 1 19.77 52.28 19.77 87 1a38.68 38.68 0 0 0 1-24.71c-4-13.84-1-1-1-1zM571.27 628.57h-74.14l-6.92 29.66s-4.06 13.73 1 19.77 52.28 19.77 87 1a38.68 38.68 0 0 0 1-24.71c-4-13.84-1-1-1-1z" transform="translate(-205 -84.5)" opacity=".1"/><path d="M570.72 628.57h-74.14l-6.92 29.66s-4.06 13.73 1 19.77 52.28 19.77 87 1a38.68 38.68 0 0 0 1-24.71c-4-13.84-1-1-1-1z" transform="translate(-205 -84.5)" fill="#6c63ff"/><path d="M314.32 519.46h29.68v28.7a9.85 9.85 0 0 1-9.85 9.85h-10a9.85 9.85 0 0 1-9.85-9.85v-28.7h.02z" opacity=".1"/><path d="M314.32 518.37h29.68v28.7a9.85 9.85 0 0 1-9.85 9.85h-10a9.85 9.85 0 0 1-9.85-9.85v-28.7h.02z" fill="#fda57d"/><path d="M519.38 607.14a42.68 42.68 0 0 0 29.66.08v-3.64h-29.66z" transform="translate(-205 -84.5)" opacity=".1"/><circle cx="329.25" cy="482.12" r="42.51" fill="#fda57d"/><path d="M288.62 465.97h81.06s-6.92-32.73-37.56-30.64l-43.5 30.64z" fill="#333"/><ellipse cx="287.63" cy="480.31" rx="3.95" ry="7.41" fill="#fda57d"/><ellipse cx="370.66" cy="480.31" rx="3.95" ry="7.41" fill="#fda57d"/><path d="M288.62 467.07h81.06s-6.92-32.73-37.56-30.64l-43.5 30.64z" opacity=".1"/><path d="M551.94 328.35a98.85 98.85 0 1 1 154 82l-.06.44a33.84 33.84 0 0 1-11.21 7.21l-.13-.44c-4.63 4-24.12 10.33-46.51 10.27h-.49c-14.18 0-29.58-2.5-43.12-9.83 0 0-.12-.26-.3-.75a35.21 35.21 0 0 1-9.32-6.38l-.16-1.12a98.74 98.74 0 0 1-42.7-81.4z" transform="translate(-205 -84.5)" fill="url(#c)" opacity=".5"/><circle cx="445.79" cy="243.86" r="95.89" fill="#f5f5f5"/><path d="M613.2 364.88s-22.85 1.87-16.8 43.49a32.82 32.82 0 0 0 10.87 6.92l12.85-43.49zM687.33 364.88s22.85 1.87 16.8 43.49a32.82 32.82 0 0 1-10.87 6.92l-12.85-43.49z" transform="translate(-205 -84.5)" fill="#be7c5e"/><path d="M409.18 212.17s-1.76 5.12-4.25 11c-5.44 13 .77 62.71 13.78 68 14.6 6 33.8 9.76 53.75 2.49 17.33-6.32 22.68-63 10.42-76.75-1.44-1.62-2.94-3.23-4.51-4.79z" fill="#333"/><circle cx="445.86" cy="209.21" r="42.51" fill="#333"/><path d="M686.9 364.88h-74.14l-6.92 29.66s-4.06 13.73 1 19.77 52.28 19.77 87 1a38.68 38.68 0 0 0 1-24.71c-4-13.84-1-1-1-1zM687.88 364.88h-74.14l-6.92 29.66s-4.06 13.73 1 19.77 52.28 19.77 87 1a38.68 38.68 0 0 0 1-24.71c-4-13.84-1-1-1-1z" transform="translate(-205 -84.5)" opacity=".1"/><path d="M687.33 364.88h-74.13l-6.92 29.66s-4.06 13.73 1 19.77 52.28 19.77 87 1a38.68 38.68 0 0 0 1-24.71c-4-13.84-1-1-1-1z" transform="translate(-205 -84.5)" fill="#f55f44"/><path d="M430.93 255.78h29.66v28.7a9.85 9.85 0 0 1-9.85 9.85h-10a9.85 9.85 0 0 1-9.85-9.85v-28.7z" opacity=".1"/><path d="M430.93 254.68h29.66v28.7a9.85 9.85 0 0 1-9.85 9.85h-10a9.85 9.85 0 0 1-9.85-9.85v-28.7h.04z" fill="#be7c5e"/><path d="M636 343.45a42.68 42.68 0 0 0 29.66.08v-3.64h-29.66z" transform="translate(-205 -84.5)" opacity=".1"/><circle cx="445.86" cy="218.43" r="42.51" fill="#be7c5e"/><path d="M405.23 202.29h81.06s-6.92-32.73-37.56-30.64l-43.5 30.64z" fill="#333"/><ellipse cx="404.24" cy="216.62" rx="3.95" ry="7.41" fill="#be7c5e"/><ellipse cx="487.27" cy="216.62" rx="3.95" ry="7.41" fill="#be7c5e"/><path d="M405.23 203.39h81.06s-6.92-32.73-37.56-30.64l-43.5 30.64z" opacity=".1"/><path d="M5 158.11v142.72h224.86s16.6 32.67 45.14 42.17c0 0-9.11-23.14.4-42.17h62.6v-142.72z" fill="url(#d)" opacity=".5"/><path d="M14 163v135h225s0 27 27 36c0 0-9-18 0-36h63v-135z" fill="#fff"/><path fill="#6c63ff" d="M41 190h180v18h-180zM41 217h243v18h-243zM41 244h216v18h-216z"/><path d="M770 433.11v142.72h-224.85s-16.6 32.67-45.15 42.17c0 0 9.11-23.14-.4-42.17h-62.6v-142.72z" fill="url(#e)" opacity=".5"/><path d="M761 438v135h-225s0 27-27 36c0 0 9-18 0-36h-63v-135z" fill="#fff"/><path fill="#6c63ff" d="M483 465h180v18h-180zM483 492h243v18h-243zM483 519h216v18h-216z"/><g opacity=".5" fill="#47e6b1"><path d="M84 714h3v17h-3zM94 721v3h-17v-3z"/></g><g opacity=".5" fill="#47e6b1"><path d="M633 192h3v17h-3zM643 199v3h-17v-3z"/></g><g opacity=".5" fill="#47e6b1"><path d="M697 612h3v17h-3zM707 619v3h-17v-3z"/></g><g opacity=".5" fill="#47e6b1"><path d="M508 0h3v17h-3zM518 7v3h-17v-3z"/></g><path d="M463.7 796.81a3.67 3.67 0 0 1-2-4.44 1.77 1.77 0 0 0 .08-.41 1.84 1.84 0 0 0-3.31-1.22 1.77 1.77 0 0 0-.2.36 3.67 3.67 0 0 1-4.44 2 1.77 1.77 0 0 0-.41-.08 1.84 1.84 0 0 0-1.22 3.31 1.77 1.77 0 0 0 .36.2 3.67 3.67 0 0 1 2 4.44 1.77 1.77 0 0 0-.08.41 1.84 1.84 0 0 0 3.31 1.22 1.77 1.77 0 0 0 .2-.36 3.67 3.67 0 0 1 4.44-2 1.77 1.77 0 0 0 .41.08 1.84 1.84 0 0 0 1.22-3.31 1.77 1.77 0 0 0-.36-.2zM262.9 479.46a3.67 3.67 0 0 1-2-4.44 1.77 1.77 0 0 0 .08-.41 1.84 1.84 0 0 0-3.31-1.22 1.77 1.77 0 0 0-.2.36 3.67 3.67 0 0 1-4.44 2 1.77 1.77 0 0 0-.41-.08 1.84 1.84 0 0 0-1.22 3.31 1.77 1.77 0 0 0 .36.2 3.67 3.67 0 0 1 2 4.44 1.77 1.77 0 0 0-.08.41 1.84 1.84 0 0 0 3.32 1.27 1.77 1.77 0 0 0 .2-.36 3.67 3.67 0 0 1 4.44-2 1.77 1.77 0 0 0 .41.08 1.84 1.84 0 0 0 1.22-3.31 1.77 1.77 0 0 0-.37-.25zM371.9 566.46a3.67 3.67 0 0 1-2-4.44 1.77 1.77 0 0 0 .08-.41 1.84 1.84 0 0 0-3.31-1.22 1.77 1.77 0 0 0-.2.36 3.67 3.67 0 0 1-4.44 2 1.77 1.77 0 0 0-.41-.08 1.84 1.84 0 0 0-1.22 3.31 1.77 1.77 0 0 0 .36.2 3.67 3.67 0 0 1 2 4.44 1.77 1.77 0 0 0-.08.41 1.84 1.84 0 0 0 3.32 1.27 1.77 1.77 0 0 0 .2-.36 3.67 3.67 0 0 1 4.44-2 1.77 1.77 0 0 0 .41.08 1.84 1.84 0 0 0 1.22-3.31 1.77 1.77 0 0 0-.37-.25zM993.9 802.46a3.67 3.67 0 0 1-2-4.44 1.77 1.77 0 0 0 .08-.41 1.84 1.84 0 0 0-3.31-1.22 1.77 1.77 0 0 0-.2.36 3.67 3.67 0 0 1-4.44 2 1.77 1.77 0 0 0-.41-.08 1.84 1.84 0 0 0-1.22 3.31 1.77 1.77 0 0 0 .36.2 3.67 3.67 0 0 1 2 4.44 1.77 1.77 0 0 0-.08.41 1.84 1.84 0 0 0 3.32 1.27 1.77 1.77 0 0 0 .2-.36 3.67 3.67 0 0 1 4.44-2 1.77 1.77 0 0 0 .41.08 1.84 1.84 0 0 0 1.22-3.31 1.77 1.77 0 0 0-.37-.25z" transform="translate(-205 -84.5)" fill="#4d8af0" opacity=".5"/><circle cx="6" cy="659" r="6" fill="#f55f44" opacity=".5"/><circle cx="683" cy="64" r="6" fill="#4d8af0" opacity=".5"/><circle cx="104" cy="76" r="6" fill="#47e6b1" opacity=".5"/><circle cx="689" cy="346" r="6" fill="#f55f44" opacity=".5"/></svg>