<svg xmlns="http://www.w3.org/2000/svg" xmlns:xlink="http://www.w3.org/1999/xlink" width="1144" height="774.711" viewBox="0 0 1144 774.71136"><defs><linearGradient id="a" x1="158.362" y1="837.356" x2="158.362" y2="581.619" gradientUnits="userSpaceOnUse"><stop offset="0" stop-color="#808080" stop-opacity=".25"/><stop offset=".535" stop-color="#808080" stop-opacity=".12"/><stop offset="1" stop-color="#808080" stop-opacity=".1"/></linearGradient><linearGradient id="b" x1="980.324" y1="824.826" x2="980.324" y2="557.005" xlink:href="#a"/><linearGradient id="c" x1="-1003.127" y1="469.493" x2="-1003.127" y2="167.607" gradientTransform="matrix(-1 0 0 1 -573.825 0)" xlink:href="#a"/></defs><title>Group chat</title><path d="M1172 523.971c0-71.093-30.065-133.884-75.991-171.64q.948-10.775.961-21.855c0-115.429-79.237-209.002-176.98-209.002-31.178 0-60.466 9.533-85.907 26.248-69.193-52.998-159.521-85.077-258.342-85.077-160.793 0-299.099 84.929-360.459 206.718-3.41-.231-6.843-.361-10.302-.361-97.743 0-176.98 93.574-176.98 209.002 0 42.438 10.721 81.912 29.123 114.878 0 103.853 84.19 188.043 188.043 188.043h753.073a147.645 147.645 0 0 0 147.645-147.645c16.559-31.804 26.116-69.236 26.116-109.309z" transform="translate(-28 -62.644)" fill="#6c63ff" opacity=".1"/><path d="M651.518 664.626s-12.29-8.11-24.473-2.341c0 0 3.753 7.228 19.17 6.539zm1.509.434s3.739 14.242-5.633 23.93c0 0-5.643-5.873-.045-20.255zm15.327-13.672s-.907-12.112-28.255-8.093c0 0-.129 7.814 9.474 11.517s13.992.581 18.781-3.423zm1.684-.082s11.563 3.718 1.253 29.364c0 0-7.627-1.705-8.978-11.907s2.711-13.739 7.726-17.457zm15.482-17.181s1.564-19.93-26.381-17.884c0 0-1.985 18.038 21.449 22.676zm18.47-22.499s-3.832-22.583-31.768-15.852c0 0-.105 19.526 27.206 21.236zm13.494-23.26s-6.414-22.048-34.094-15.414c0 0 6.586 19.786 32.257 19.477zm12.822-22.713s-6.271-22.835-32.988-15.978c0 0 8.917 21.69 31.231 19.864zm8.267-21.581s-4.822-27.924-29.742-21.744c0 0 7.239 25.4 27.905 25.807zm7.745-26.072s-5.785-28.146-30.974-19.961c0 0 9.889 26.598 29.217 23.847zm4.798-24.266s-9.188-28.143-28.68-27.381c0 0 9.396 29.727 27.052 33.029zm3.047-23.674s-10-33.882-25.863-31.267c0 0 6.923 25.895 25.299 36.543zm1.731-28.282s-9.372-28.232-25.033-29.355c0 0 6.378 27.776 24.687 36.692zm1.896-26.329s-11.689-28.263-22.039-28.9c0 0 5.078 27.827 21.006 33.539zm1.298-24.519s-7.186-30.695-17.524-33.241c0 0 1.415 25.107 16.485 35.537zm3.886-32.086s-7.558-24.461-15.927-28.193c0 0 1.654 28.843 13.987 34.177zm3.234-21.076l1.525-43.139s-15.621 32.556-2.676 50.749zm12.084-42.871s11.264-31.502 13.972-33.256c0 0-22.096 20.435-19.94 46.728zm-92.011 339.082s19.823-2.594 19.227 25.419c0 0-17.911 2.917-23.756-20.246zm18.645-23.107s22.906-.076 21.039 28.598c0 0-19.222 3.434-25.566-23.185zm12.783-20.65s20.79-9.749 34.094 15.414c0 0-19.205 8.125-35.931-11.351zm13.061-24.359s21.286-10.376 33.786 14.211c0 0-22.174 7.634-35.543-10.325zm7.53-21.186s20.491-19.573 36.843.222c0 0-20.932 16.106-37.784 4.137zm6.856-27.347s20.617-20.016 36.837.922c0 0-23.139 16.427-37.571 3.279zm3.857-24.395s15.881-24.984 34.576-19.412c0 0-16.476 26.468-34.399 25.287zm4.678-23.033s16.016-31.488 31.135-26.021c0 0-11.533 24.197-31.544 31.312zm1.103-29.73s16.452-24.783 31.86-21.757c0 0-13.444 25.129-33.451 28.927zm1.255-25.277s12.747-27.802 23.114-28.048c0 0-6.124 27.616-22.256 32.722zm2.53-24.569s14.169-28.161 24.816-28.217c0 0-7.251 24.079-24.344 30.693zm2.13-29.754s10.601-23.304 19.375-25.944c0 0-5.3 28.4-18.21 32.126zm6.761-23.617l23.688-36.085s-6.069 35.596-27.147 42.961zm16.26-39.155s27.532-19.007 28.528-22.076c0 0-14.045 26.619-40.005 31.316zm1.646-8.545s31.61-30.388 39.681-30.356c0 0-26.068 1.193-40.438 28.737z" fill="#6c63ff"/><path d="M761.015 365.082l1.154.148c5.939-46.496 14.599-73.974 24.385-77.373l-.382-1.099c-10.373 3.603-19.072 30.687-25.157 78.324zm-8.733 111.173l1.739.147c.365-4.342.647-8.786.838-13.209 1.658-38.485 4.23-73.82 7.615-100.313l-1.008-1.246c-3.391 26.541-6.69 62.95-8.349 101.484-.189 4.399-.47 8.82-.833 13.138z" fill="#444053"/><path d="M647.057 749.404c.306-.134 30.934-13.81 62.724-46.436a252.324 252.324 0 0 0 45.851-64.956c14.696-29.925 23.655-66.709 26.661-102.438l-1.813.852c-6.748 80.194-43.26 135.023-72.293 164.843-31.48 32.335-61.764 45.871-62.066 46.004z" transform="translate(-28 -62.644)" fill="#444053"/><path d="M629.676 302.121v377.782c0 11.236-10.837 20.371-24.217 20.371h-512.566c-13.381 0-24.217-9.135-24.217-20.371v-377.782c0-11.256 10.836-22.727 24.217-22.727h512.566c13.381 0 24.217 11.471 24.217 22.727z" fill="#fff"/><path d="M657.676 366.255v59.389h-561.001v-59.389a24.21 24.21 0 0 1 24.217-24.217h512.566a24.21 24.21 0 0 1 24.217 24.217z" transform="translate(-28 -62.644)" fill="#6c63ff" opacity=".2"/><circle cx="99.441" cy="321.196" r="16.194" fill="#fff"/><circle cx="146.556" cy="321.196" r="16.194" fill="#fff"/><circle cx="193.671" cy="321.196" r="16.194" fill="#fff"/><path d="M232.783 762.227s-15.658 3.789-21.857 10.872a21.079 21.079 0 0 1-8.335 5.296v-10.712c3.58-6.015 7.193-12.705 7.193-12.705.163-.329 1.468-4.942 1.468-4.942 2.936-2.306-.163-10.378-.163-10.378s1.794-5.107.816-6.095-.163-3.624.652-4.777a5.967 5.967 0 0 0 .652-3.624c0-.988-1.305-2.471-3.425-3.295s.163-2.141 1.468-2.471 1.631-3.459.163-5.107.163-2.636.979-4.448l-2.61-1.483v-16.634l.002-.001s-.979-5.436-1.957-14.994c-.979-9.553-4.732-10.541-4.732-10.541a42.692 42.692 0 0 1-5.872-2.308 40.188 40.188 0 0 0-6.2-2.303 31.781 31.781 0 0 1-7.991-1.107 24.509 24.509 0 0 0-5.456-1.181l-.587-.292a21.354 21.354 0 0 1-9.899-10.487l-.284-.672a23.289 23.289 0 0 0 2.608-3.459l.017-.028.007.504-.003.212c-.002.406-.006.812-.017 1.217l.002-.004v.036c2.604-4.597 10.149-5.646 10.868-10.892a5.499 5.499 0 0 0 .047-.719l.001-.033-.021-.53c-.097-1.465-.599-2.923-.697-4.404a8.581 8.581 0 0 1 .021-1.271l.003.024c.337-4.076 3.41-7.618 4.818-11.577a14.181 14.181 0 0 0 .734-3.294l.003-.03q.052-.51.069-1.022l.005-.254q.006-.356-.004-.711a15.413 15.413 0 0 0-5.091-11.131c-2.6-2.26-6.037-3.68-7.837-6.63-.84-1.376-1.253-2.993-2.168-4.32-1.724-2.498-4.895-3.516-7.888-3.878s-6.081-.24-8.948-1.182c-2.032-.668-3.876-1.847-5.929-2.442a11.348 11.348 0 0 0-12.188 4.395c-1.082 1.579-1.791 3.47-3.249 4.702-2.989 2.525-8.06 1.429-10.679 4.344-1.438 1.6-1.603 3.78-1.429 6.011l.006.078.048.519.025.241.03.258c.092.799.208 1.594.308 2.361l.041.351.08.714.046.523.047.648.031.508a35.158 35.158 0 0 1-3.741 17.569c-2.467 4.845-6.138 9.304-6.777 14.715a15.597 15.597 0 0 0-.07 2.668l.015.314.044.48.056.551.044.314.11.73.028.156c.648 3.687 2.115 7.326 2.898 11.025a30.546 30.546 0 0 1 .583 4.166l.001.029q.046.667.064 1.336c.015.603.007 1.207-.013 1.81a28.392 28.392 0 0 1-3.802 1.167c-2.285.331-8.974 6.261-8.485 7.744.484 1.463-2.995 11.875-3.093 12.182l-.005.005.001.001-.001.001-5.503 37.887s-2.906 2.8-1.998 4.612l-.176 4.942s-4.909 2.141-3.82 3.459.592 3.789-.158 5.436-1.974 4.612 0 5.107l.339 6.919s6.884-.79 6.379 3.295c-.162 1.305 4.815 4.881 6.893 6.313v19.68a60.236 60.236 0 0 1-8.155-2.766c-4.241-1.977-28.055-5.765-33.274 5.601s7.177 26.521 10.276 28.168c0 0 2.936 2.306 3.588 3.459l4.404 1.483s3.915 1.812 4.893 2.8c.722.729 6.683 2.623 13.754 4.096l-.001.001s-5.709 13.144 3.604 12.059 13.85-5.668 20.417-5.668c2.624 0 7.498-.366 12.405-.805a32.71 32.71 0 0 1 3.647.86 46.654 46.654 0 0 0 8.482 1.812s7.34 3.953 11.254 2.965a2.569 2.569 0 0 0 .889-.476l.089-.019a5.231 5.231 0 0 0 2.358-2.021c4.899.5 10.477 1.214 12.577 2.024 4.06 1.568 33.074-.603 33.074-.603s18.746.369 24.119 1.993 3.463-16.584-6.448-18.634a40.417 40.417 0 0 0-8.063-.713 17.682 17.682 0 0 0 1.873-2.277c3.571-.325 5.917-.525 5.917-.525s9.46-4.612 14.843-7.413a33.852 33.852 0 0 0 9.134-7.248s4.73-2.965 6.687-4.118l2.936-4.942c14.843-33.604-22.835-29.157-22.835-29.157zm-42.476-42.154l.006-1.661c.521.377.445.966-.006 1.661zm.155 11.65c.395.52.779.994 1.054 1.347 1.054 1.352-.854 2.009-.716 4.277l.123 1.998c-.201-3.247-.364-5.941-.461-7.622z" transform="translate(-28 -62.644)" fill="url(#a)"/><path d="M77.559 721.065s-9.134-2.12-13.375-4.078-28.055-5.709-33.274 5.546 7.177 26.26 10.276 27.892l33.274-20.715 23.814 10.031 4.567-15.577z" fill="#65617d"/><rect x="87.63" y="724.164" width="103.616" height="36.047" rx="16.588" fill="#65617d"/><path d="M219.245 804.83a18.026 18.026 0 0 1-18.022 18.027h-67.571a18.024 18.024 0 0 1 0-36.049h67.571a18.024 18.024 0 0 1 18.022 18.022z" transform="translate(-28 -62.644)" opacity=".1"/><path d="M134.83 743.24s-10.388 2.668-18.865 2.549l-48.14 16.358s-5.709 13.015 3.604 11.94 13.85-5.612 20.417-5.612l27.223-2.269 19.879-14.686z" fill="#fbbebe"/><path d="M169.334 683.072l-18.638 3.675-1.209.24s-14.734-3.915-15.223-4.242c-.489-.323-13.863-18.35-13.863-18.35s6.762.073 12.077-2.99l.563-.343a11.757 11.757 0 0 0 5.04-6.156c.093-.269.176-.548.254-.837a16.537 16.537 0 0 0-.157-8.025c-1.801-7.604 2.373-9.698 7.937-9.517 8.035.264 18.976 5.28 18.976 5.28a22.276 22.276 0 0 0 1.718 7.438l.284.665a21.226 21.226 0 0 0 9.899 10.383l.587.289c.592.284 1.218.553 1.869.798 14.19 5.383-10.114 21.692-10.114 21.692z" transform="translate(-28 -62.644)" fill="#fbbebe"/><path d="M167.093 649.91a23.493 23.493 0 0 1-29.012 4.996 15.79 15.79 0 0 0 .098-8.862c-4.404-18.594 26.913-4.238 26.913-4.238a22.567 22.567 0 0 0 2.001 8.103z" transform="translate(-28 -62.644)" opacity=".1"/><path d="M172.975 633.391a23.363 23.363 0 0 1-3.557 12.429 23.088 23.088 0 0 1-2.608 3.425 23.376 23.376 0 0 1-15.903 7.589c-.47.029-.944.044-1.419.044a23.488 23.488 0 1 1 23.488-23.488z" transform="translate(-28 -62.644)" fill="#fbbebe"/><path d="M169.334 683.072l-18.638 3.675-1.209.24s-14.734-3.915-15.223-4.242c-.489-.323-13.863-18.35-13.863-18.35s6.762.073 12.077-2.99l.563-.343a21.871 21.871 0 0 0 15.898 6.953 22.623 22.623 0 0 0 3.318-.264c2.623-.401 5.265-.661 7.903-.935 5.05-.528 12.776-2.06 16.833-6.523l.587.289c.592.284 1.218.553 1.869.798 14.19 5.383-10.114 21.692-10.114 21.692z" transform="translate(-28 -62.644)" opacity=".1"/><path d="M190.375 730.698c.161 3.592 2.774 44.039 2.774 44.039h-81.394l.553-25.464.445-20.371.147-6.684.651-23.16-2.354-2.075-12.815-11.303.005-.005c.098-.303 3.577-10.613 3.093-12.062-.489-1.468 6.2-7.34 8.485-7.668a28.815 28.815 0 0 0 3.827-1.165c3.846-1.351 8.979-3.337 9.547-3.029.798.431 8.803-.313 9.141-.347h.01a21.824 21.824 0 0 0 16.451 7.589 22.622 22.622 0 0 0 3.318-.264c2.623-.401 5.265-.661 7.903-.935 5.304-.553 13.554-2.217 17.42-7.213a24.723 24.723 0 0 1 5.456 1.169 32.08 32.08 0 0 0 7.991 1.096 40.448 40.448 0 0 1 6.2 2.28 42.955 42.955 0 0 0 5.872 2.285s3.753.979 4.732 10.437c.979 9.464 1.957 14.846 1.957 14.846l-19.412 16.799s-.161 17.616 0 21.202z" transform="translate(-28 -62.644)" fill="#6c63ff"/><path fill="#fbbebe" d="M70.382 696.273l2.852 4.567 10.686 3.766 7.34-13.39-6.767-4.567-10.849-4.24-6.198 3.588 2.936 10.276z"/><path d="M161.56 718.782s15.169-1.142 21.367-8.155l21.857-10.765s37.678-4.404 22.835 28.87c0 0-.979 3.751-2.936 4.893l-6.687 4.078-57.893-5.056z" fill="#65617d"/><path d="M219.245 804.83a17.967 17.967 0 0 1-3 9.963c-9.738.866-31.307 2.892-35.819 4.149-5.544 1.536-16.764-1.14-17.992-1.444l-.113-.024s-2.163-6.562-3.195-10.76c-.465-1.908-.7-3.327-.396-3.43.979-.328 9.953-2.774 9.786-1.39-.161 1.39 26.913-10.521 26.913-10.521l.832 10.441c2.76 3.166 22.984-1.515 22.984 3.016z" transform="translate(-28 -62.644)" opacity=".1"/><path d="M247.137 796.106l-1.142 4.241a33.779 33.779 0 0 1-9.134 7.177c-5.383 2.773-14.843 7.34-14.843 7.34s-34.742 2.936-40.614 4.567l-18.105-1.468s-4.567-13.864-3.588-14.19 9.95-2.773 9.787-1.386l26.913-10.52z" transform="translate(-28 -62.644)" fill="#65617d"/><path d="M122.412 770.028s17.074 1.194 21.134 2.746l33.074-.597s18.746.365 24.119 1.973 3.463-16.421-6.448-18.451l-23.88.955s-15.761-2.03-17.671-2.269l-14.505.116z" fill="#fbbebe"/><path d="M55.31 725.014s22.567 2.03 28.775 5.731zm140.772-14.806s-17.671 4.298-24.596 10.627zm-139.459 9.672c.358.119 10.388 1.433 10.149 2.388l-10.149-2.388z" opacity=".1"/><path d="M68.86 807.687l1.305 4.893a21.133 21.133 0 0 1 3.588 3.425c.652 1.142 4.404 1.468 4.404 1.468s3.915 1.794 4.893 2.773 11.581 4.078 21.53 5.383 28.381 3.751 32.295 5.056a47.064 47.064 0 0 0 8.482 1.794s7.34 3.915 11.254 2.936l10.602-18.757s-25.771-6.035-26.587-7.992l-25.608-11.086-14.68.347z" transform="translate(-28 -62.644)" opacity=".1"/><path d="M67.881 808.176l1.305 4.893a21.134 21.134 0 0 1 3.588 3.425c.652 1.142 4.404 1.468 4.404 1.468s3.915 1.794 4.893 2.773 11.581 4.078 21.53 5.383 28.381 3.751 32.295 5.056a47.063 47.063 0 0 0 8.482 1.794s7.34 3.915 11.254 2.936l10.602-18.757s-25.771-6.035-26.587-7.992l-37.189-16.8-11.418-2.61z" transform="translate(-28 -62.644)" fill="#65617d"/><path d="M73.234 621.406l-2.851 1.631-5.503 37.515s-2.906 2.773-1.998 4.567l-.176 4.893s-4.909 2.12-3.82 3.425.592 3.751-.158 5.383-1.974 4.567 0 5.056l.339 6.851s6.884-.782 6.379 3.262c-.204 1.631 7.787 6.851 7.787 6.851s-9.08-16.474 11.26-14.19l1.749-9.288s1.749-5.229 0-6.86l.393-9.379.384-33.682z" fill="#6c63ff"/><path d="M68.802 669.851c.358.597 11.343 1.815 12.059 3.773l-12.059-3.773zm-3.463 9.313s1.489-4.657 5.043-3.821l-5.043 3.821zm-1.91 6.806s2.627-6.209 6.209-5.731l-6.209 5.731z" opacity=".1"/><path d="M182.927 685.834l-1.142 6.851s-11.744 21.53-13.864 21.857l-13.701-14.354-3.099-14.354 12.201-2.312 5.415-5.354s13.701 1.305 14.19 7.666z" fill="#fbbebe"/><path d="M205.381 689.596l4.404 3.099v16.474s3.425-.326 2.61 1.468-2.447 2.773-.979 4.404 1.142 4.73-.163 5.056-3.588 1.631-1.468 2.447 3.425 2.284 3.425 3.262a5.858 5.858 0 0 1-.652 3.588c-.816 1.142-1.631 3.751-.652 4.73l-.816 6.035s3.099 7.992.163 10.276c0 0-1.305 4.567-1.468 4.893 0 0 2.055-15.879-18.464-9.163 0 0-.382-6.051-.52-8.296s1.77-2.896.716-4.235-3.693-4.404-2.447-5.219.816-2.284.326-3.425-2.217-1.142-.654-2.528 2.486-2.688 1.57-3.342-2.51-2.779-1.242-3.753l1.305-15.169s5.22-20.878 15.006-10.602z" transform="translate(-28 -62.644)" fill="#6c63ff"/><path d="M175.306 655.016s6.271-1.701 6.479 0h-6.479zm-7.044 4.686s8.597-2.149 9.671-.478l-9.671.478zm-1.911 4.537s12.895-1.791 13.731.836l-13.731-.836zm1.911 5.612c.478.119 12.418.955 12.656 3.224l-12.656-3.224z" opacity=".1"/><rect x="72.34" y="677.204" width="102.252" height="58.079" rx="10.467" fill="#3f3d56"/><circle cx="123.466" cy="706.243" r="3.772" fill="#e7effd"/><path d="M89.466 641.608s9.8 7.491 17.378 1.782c0 0-12.811 1.165-17.378-1.782zm49.627 2.013s9.8 7.491 17.378 1.782c0 0-12.811 1.165-17.378-1.782z" opacity=".1"/><path d="M172.975 633.391a23.363 23.363 0 0 1-3.557 12.429c-.196-6.542-1.737-13.085-5.294-18.545-3.259-5.006-13.163-13.779-19.974-11.338a4.835 4.835 0 0 0-2.975 3.2c-.675 2.564 1.302 3.631 2.569 5.671a17.366 17.366 0 0 1 2.373 11.719 16.502 16.502 0 0 1-.343 1.625c-1.072 4.022-3.528 8.627-.993 11.93 1.766 2.3 5.564 3.093 6.077 5.945a3.478 3.478 0 0 1 .049.807c-.117 1.918-1.757 3.611-2.471 5.5-.842 2.222-.367 4.428.504 6.66 1.135 2.911 2.941 5.857 3.376 8.93.431 3.029-.504 5.926-1.62 8.823a39.538 39.538 0 0 0-2.691 8.304c-.788 5.422 1.199 11.69-2.212 15.976a2.385 2.385 0 0 1-1.492 1.008c-2.187.23-1.815-3.699-3.572-5.02.186 2.285.362 4.663-.465 6.802-.832 2.138-2.985 3.949-5.25 3.592l-.778-5.128a14.789 14.789 0 0 1-5.432 3.401 39.589 39.589 0 0 1 5.666-15.35c-5.745 2.765-9.092 8.754-12.081 14.381-1.864 3.518-3.792 7.364-3.141 11.294.264 1.6.954 3.122 1.106 4.737s-.436 3.494-1.938 4.11a3.502 3.502 0 0 1-3.782-1.174l-.161-.196a3.822 3.822 0 0 1-.259-.367 5.699 5.699 0 0 1-.435-.773 14.992 14.992 0 0 1-.92-3l-.103-.44c-1.517-6.67-2.887-13.544-1.776-20.287.411-2.486 1.16-4.947 1.072-7.467a13.81 13.81 0 0 0-.851-4.164c-1.331-3.729-3.895-7.159-5.358-10.917a.599.599 0 0 1-.034-.083c-.768-1.992-1.145-4.477.274-6.073a12.362 12.362 0 0 1 2.726-1.845c2.838-1.85 4.11-5.358 4.629-8.705a29.334 29.334 0 0 0 .357-4.58c3.846-1.351 8.979-3.337 9.547-3.029.798.431 8.803-.313 9.141-.347a11.961 11.961 0 0 0 5.603-6.498c.093-.269.176-.548.254-.837a23.49 23.49 0 1 1 34.639-20.679z" transform="translate(-28 -62.644)" opacity=".1"/><path d="M145.773 637.172c-1.073 4.024-3.527 8.628-.991 11.931 1.767 2.302 5.563 3.091 6.074 5.948.404 2.26-1.608 4.159-2.42 6.307-1.938 5.124 3.111 10.163 3.879 15.587.832 5.884-3.455 11.248-4.309 17.129-.788 5.421 1.199 11.688-2.213 15.973a2.369 2.369 0 0 1-1.492 1.01c-2.187.232-1.816-3.696-3.574-5.018.189 2.285.366 4.663-.464 6.801s-2.984 3.948-5.249 3.591l-.778-5.13a14.845 14.845 0 0 1-5.432 3.402 39.612 39.612 0 0 1 5.667-15.35c-5.742 2.766-9.09 8.752-12.079 14.382-1.867 3.517-3.793 7.363-3.142 11.291.265 1.602.954 3.122 1.106 4.738s-.436 3.493-1.939 4.109a3.559 3.559 0 0 1-3.943-1.367 10.314 10.314 0 0 1-1.614-4.142c-1.558-6.808-3.017-13.838-1.879-20.728.411-2.486 1.159-4.948 1.069-7.466-.197-5.507-4.261-10.022-6.245-15.163-.769-1.992-1.143-4.477.274-6.074a12.451 12.451 0 0 1 2.729-1.844c2.837-1.85 4.11-5.357 4.63-8.704a30.165 30.165 0 0 0-.307-10.896c-1.146-5.365-3.772-10.6-3.122-16.048.639-5.357 4.309-9.772 6.777-14.57a34.49 34.49 0 0 0 3.495-20.146c-.425-3.217-1.167-6.941 1.014-9.343 2.619-2.885 7.69-1.8 10.679-4.301 1.458-1.22 2.167-3.092 3.249-4.656a11.407 11.407 0 0 1 12.188-4.352c2.054.589 3.898 1.757 5.929 2.418 2.867.933 5.954.813 8.948 1.171s6.165 1.366 7.888 3.839c.915 1.313 1.328 2.915 2.168 4.277 1.8 2.921 5.237 4.327 7.837 6.565a15.213 15.213 0 0 1 4.282 16.25c-1.553 4.324-5.145 8.145-4.839 12.729.126 1.883.926 3.73.668 5.599-.719 5.195-8.264 6.234-10.868 10.785.207-7.463-1.225-15.154-5.299-21.411-3.26-5.007-13.165-13.78-19.974-11.339a4.837 4.837 0 0 0-2.976 3.201c-.674 2.564 1.301 3.63 2.568 5.673a17.246 17.246 0 0 1 2.031 13.341z" transform="translate(-28 -62.644)" fill="#3f3d56"/><g opacity=".2"><path d="M113.781 663.036a30.145 30.145 0 0 0-.65-6.984c-.974-4.561-3.011-9.029-3.202-13.613-.261 5.102 2.125 10.034 3.202 15.081a30.101 30.101 0 0 1 .65 5.516z" transform="translate(-28 -62.644)"/><path d="M105.22 637.423c.397-.729.809-1.449 1.252-2.151-5.742 2.766-9.09 8.752-12.079 14.382-1.729 3.256-3.504 6.796-3.241 10.421.218-3.111 1.747-6.138 3.241-8.953 2.764-5.206 5.839-10.712 10.827-13.699z"/><path d="M120.327 729.574a3.46 3.46 0 0 1-1.909 2.862 3.559 3.559 0 0 1-3.943-1.367 10.313 10.313 0 0 1-1.614-4.142 73.764 73.764 0 0 1-2.271-14.81c-.109 5.446 1.047 10.93 2.271 16.278a10.313 10.313 0 0 0 1.614 4.142 3.559 3.559 0 0 0 3.943 1.367c1.503-.616 2.091-2.493 1.939-4.109l-.029-.22zm25.976-97.306a16.318 16.318 0 0 1-.529 3.468c-.796 2.983-2.348 6.284-2.066 9.138.217-2.483 1.403-5.187 2.066-7.67a16.539 16.539 0 0 0 .529-4.936zm-25.742-21.775a33.865 33.865 0 0 0-.281-5.205c-.168-1.271-.383-2.621-.45-3.937a29.444 29.444 0 0 0 .45 5.405 33.707 33.707 0 0 1 .281 3.737zm30.296 44.589l-.03-.115c-.347 1.698-1.745 3.248-2.39 4.954a7.002 7.002 0 0 0-.4 3.192 6.727 6.727 0 0 1 .4-1.724c.812-2.148 2.824-4.047 2.42-6.307zm-38.807 43.65c-.197-5.507-4.261-10.022-6.245-15.163a10.183 10.183 0 0 1-.638-2.508 8.452 8.452 0 0 0 .638 3.976c1.951 5.056 5.904 9.507 6.223 14.891.023-.397.036-.796.022-1.196zm52.076-73.873c-3.26-5.007-13.165-13.78-19.974-11.339a4.837 4.837 0 0 0-2.976 3.201 3.467 3.467 0 0 0-.051 1.715l.051-.247a4.837 4.837 0 0 1 2.976-3.201c6.809-2.442 16.713 6.332 19.974 11.339 3.69 5.667 5.207 12.509 5.308 19.294.108-7.259-1.351-14.686-5.308-20.762zm16.166 10.626c-.717 5.183-8.23 6.23-10.85 10.756q.002.75-.018 1.497c2.604-4.552 10.149-5.591 10.868-10.785a6.378 6.378 0 0 0 .005-1.538l-.005.07zm4.172-18.328c-1.553 4.324-5.145 8.145-4.839 12.729l.022.202c.337-4.036 3.41-7.544 4.818-11.463a14.383 14.383 0 0 0 .798-5.587 14.13 14.13 0 0 1-.798 4.119zm-38.671 91.453a2.369 2.369 0 0 1-1.492 1.01c-2.187.232-1.816-3.696-3.574-5.018.043.52.084 1.045.114 1.571 1.622 1.406 1.324 5.141 3.46 4.915a2.369 2.369 0 0 0 1.492-1.01c1.946-2.445 2.136-5.534 2.085-8.744-.05 2.675-.438 5.207-2.085 7.276zm-5.529 2.793c-.829 2.138-2.984 3.948-5.249 3.591l-.778-5.13a14.844 14.844 0 0 1-5.16 3.297c-.098.523-.195 1.046-.272 1.573a14.845 14.845 0 0 0 5.432-3.402l.778 5.13c2.265.358 4.42-1.453 5.249-3.591a11.566 11.566 0 0 0 .603-4.642 9.872 9.872 0 0 1-.603 3.174zm7.742-18.766a26.269 26.269 0 0 0-.198 4.157 21.471 21.471 0 0 1 .198-2.689c.815-5.606 4.744-10.741 4.39-16.306-.316 5.009-3.648 9.728-4.39 14.838z" transform="translate(-28 -62.644)"/></g><path d="M738.995 205.842v98.184c0 5.182-4.998 9.396-11.169 9.396h-236.405c-6.171 0-11.169-4.213-11.169-9.396v-98.184c0-5.191 4.998-10.482 11.169-10.482h236.405c6.171 0 11.169 5.291 11.169 10.482z" fill="#fff"/><path d="M766.995 269.173v27.391h-258.744v-27.391a11.166 11.166 0 0 1 11.169-11.169h236.405a11.166 11.166 0 0 1 11.169 11.169z" transform="translate(-28 -62.644)" fill="#6c63ff" opacity=".2"/><circle cx="494.441" cy="214.64" r="7.469" fill="#fff"/><circle cx="516.172" cy="214.64" r="7.469" fill="#fff"/><circle cx="537.902" cy="214.64" r="7.469" fill="#fff"/><circle cx="688.036" cy="273.039" r="29.199" fill="#6c63ff"/><path fill="#6c63ff" d="M625.743 257.737h-123.139v-4.346h123.139z"/><path fill="#6c63ff" opacity=".2" d="M625.743 268.33h-123.139v-4.346h123.139zm0 10.594h-123.139v-4.346h123.139zm0 10.594h-123.139v-4.346h123.139z"/><path d="M644.568 451.647s-8.676-1.992-14.355 3.852c0 0 3.655 3.3 12.24-.353zm.946-.073s5.131 7.275 1.873 14.744c0 0-4.438-2.132-4.311-11.461zm5.787-10.986s-3.076-6.667-17.713 1.395c0 0 1.58 4.452 7.802 4.518s8.047-2.631 9.912-5.912zm.936-.403s7.335-.341 6.922 16.364c0 0-4.68.648-7.604-4.843s-1.372-8.354.682-11.521zm5.133-13.005s-3.331-11.618-18.724-4.546c0 0 2.692 10.635 16.945 8.303zm5.699-16.65s-6.948-11.978-21.345-2.256c0 0 4.072 11.08 19.9 6.27zm2.721-16.027s-8.298-11.129-22.569-1.516c0 0 7.916 9.811 22.388 4.205zm2.456-15.576s-8.383-11.605-22.062-2.069c0 0 9.639 10.397 21.889 4.641zm.115-13.97s-8.639-14.793-21.444-6.021c0 0 9.474 12.853 21.264 8.711zm-1.13-16.404s-9.231-14.716-21.764-4.751c0 0 11.228 12.97 21.592 7.323zm-2.417-14.757s-11.158-13.994-22.035-9.438c0 0 11.611 14.847 22.308 12.981zm-3.284-14.052s-12.832-17.072-21.262-12.235c0 0 9.399 13.2 22.059 15.342zm-5.003-16.383s-11.281-14.005-20.388-11.328c0 0 9.489 14.381 21.744 15.556zm-4.497-15.312s-12.6-13.532-18.596-11.703c0 0 8.764 14.684 18.992 14.549zm-4.453-14.16s-10.564-15.862-16.957-15.117c0 0 6.113 13.919 16.855 16.637zm-4.588-18.992s-9.456-12.253-14.985-12.596c0 0 7.039 15.984 15.152 16.396zm-2.628-12.621l-8.264-24.753s-1.958 21.742 9.222 29.306zm-2.227-26.835s-.287-20.223.876-21.79c0 0-8.19 16.248-1.405 30.682zm19.636 211.495s10.677-5.663 16.267 10.327c0 0-9.526 5.441-17.737-6.439zm5.67-17.031s12.956-4.89 17.965 11.744c0 0-10.159 6.012-19.384-7.721zm2.87-14.398s9.711-9.92 22.569 1.516c0 0-9.157 8.665-22.75 1.174zm2.242-16.559s9.859-10.38 22.141.899c0 0-10.942 9.015-22.313 1.673zm-.217-13.591s7.463-15.42 20.911-7.67c0 0-8.446 13.55-20.522 10.337zm-1.904-16.938s7.441-15.697 21.057-7.272c0 0-9.628 14.198-20.583 9.807zm-2.977-14.631s3.707-17.509 15.473-18.309c0 0-3.731 18.475-14.13 21.598zm-2.224-14.034s2.408-21.221 12.127-21.324c0 0-1.412 16.143-11.239 24.407zm-5.666-17.07s4.074-17.516 13.439-19.062c0 0-2.297 17.075-12.823 23.459zm-4.637-14.58s1.337-18.442 7.155-20.774c0 0 2.375 16.935-5.681 23.24zm-3.766-14.449s2.066-18.946 8.083-21.23c0 0 .988 15.17-7.292 22.532zm-5.089-17.301s1.073-15.44 5.483-18.792c0 0 3.007 17.205-3.515 22.046zm-1.168-14.805l5.78-25.448s4.095 21.443-6.284 30.073zm.924-25.614s11.57-16.589 11.485-18.538c0 0-2.322 18.046-16.029 26.199zm-.877-5.188s11.472-23.897 16.049-25.587c0 0-14.511 6.191-16.82 24.83z" fill="#6c63ff"/><path d="M643.199 258.844l.685-.161c-6.474-27.588-7.384-44.982-2.561-48.977l-.449-.541c-5.112 4.235-4.308 21.414 2.325 49.679zm18.577 64.806l1.016-.285c-.712-2.536-1.492-5.113-2.32-7.658-7.204-22.145-13.223-42.7-16.912-58.42l-.835-.492c3.696 15.748 9.531 37.065 16.744 59.238.824 2.532 1.6 5.094 2.308 7.616z" fill="#444053"/><path d="M658.868 533.694c.145-.141 14.596-14.366 25.696-39.569a152.542 152.542 0 0 0 12.223-46.487c1.991-20.056-.719-42.783-6.575-63.653l-.847.866c13.146 46.843 4.07 85.618-6.062 108.649-10.986 24.972-25.272 39.046-25.415 39.185z" transform="translate(-28 -62.644)" fill="#444053"/><path d="M1092.824 778.988l-27.672-40.118s-.517-9.933-2.328-12.255l-.388-7.482s1.94-2.838.259-3.096l-.259-6.579-.129-10.062s1.552-9.675.259-11.997a3.804 3.804 0 0 1 .129-4.128s1.552-5.547 0-6.966-1.164-10.062-.776-16.899-2.715-10.707-2.715-11.739-10.215-11.094-10.215-11.997-6.465-4.644-10.345-5.676-5.819-1.806-5.689-2.322l-6.077-2.58s-5.431-.387-7.5-3.096c-2.04-2.671-8.396-3.493-8.575-3.516l-.12-.541-.117-.583c.489-.819.942-1.661 1.351-2.528q.184-.39.356-.787a10.994 10.994 0 0 0 6.363-1.973 8.662 8.662 0 0 0 3.099-6.187 13.576 13.576 0 0 0-1.512-6.874c-1.135-2.323-2.799-4.729-2.223-7.249.249-1.089.901-2.043 1.234-3.109a8.187 8.187 0 0 0-.928-6.11c-.98-1.874-2.344-3.521-3.432-5.335a20.921 20.921 0 0 1-2.73-7.546 11.711 11.711 0 0 0-1.01-4.107 7.619 7.619 0 0 0-2.267-2.29 22.659 22.659 0 0 0-13.899-4.214c-3.52.122-7.028 1.07-10.524.64a38.526 38.526 0 0 1-6.144-1.608c-4.337-1.282-9.34-1.811-13.116.672-3.844 2.528-5.28 7.363-7.839 11.182-2.263 3.378-5.577 6.209-7.302 9.787l.058-.208a11.755 11.755 0 0 0-.964 2.606c-.659 2.81-.111 5.751.573 8.555.352 1.446.834 3.016 2.089 3.82 1.282.822 3.031.622 4.521.887l-.173.737a29.535 29.535 0 0 0 20.501 34.453l.008.783a20.256 20.256 0 0 1-.136 2.217l-.001.001-.001-.002s-13-2.672-16.491-.866-10.345 3.225-11.379 4.257-3.621.258-5.948 6.321-2.586 12.255-5.56 15.093-4.526 4.773-4.655 6.837.388 2.58-.776 3.225-2.845 3.354-2.328 4.386c0 0 .647 2.58-1.422 3.87a4.311 4.311 0 0 0-1.81 3.87s-.776 2.838-2.586 3.483l-2.974 4.902-5.865 6.741-11.622-12.853a4.905 4.905 0 0 0-6.916-.356l-5.705 5.133a11.262 11.262 0 0 0-5.711 3.398 14.848 14.848 0 0 0-2.959 4.403l-3.126 2.813a7.932 7.932 0 0 0-.801 8.766l7.445 8.235.046.069a13.117 13.117 0 0 0-7.201 2.933c-11.118 9.802-11.25 18.835-9.566 22.96 1.68 4.129 15.773 19.996 15.773 19.996s8.185 10.643 20.007 16.303l-.016.017-.089.091c-.234.248-.465.519-.693.809l-.19.244-.18.252-.212.309-.164.255-.223.369-.143.247-.264.501-.085.165c-.11.226-.217.462-.321.705l-.106.261-.2.513-.117.332-.166.506-.111.363-.154.566-.091.35q-.108.449-.202.925l-.065.367-.112.665-.064.466-.079.644-.05.491-.057.734-.03.453c-.022.405-.038.819-.046 1.247-.26 15.093.625 17.287.625 17.287s1.827 4.806 6.862 5.151a8.957 8.957 0 0 0 2.211-.12c6.723-1.161 22.499-3.87 28.058-2.837 3.344.619 9.531-.298 13.938-1.13l1.162-.224.805 2.565 2.559-.7c.827.48 1.562.905 2.17 1.254l1.369.788c2.554 8.653 12.91 5.701 12.91 5.701l2.459 1.42 24.955.642s5.357 3.228 8.833 4.241a7.877 7.877 0 0 0 1.253.275 57.331 57.331 0 0 0 6.955.132c1.912-.05 3.39-.132 3.39-.132s-.254-6.775-.616-14.361c9.536-.395 17.995-.994 23.115-1.893 13.325-2.34 18.885-14.461 20.934-20.935a61.01 61.01 0 0 1 1.307 8.036 58.064 58.064 0 0 0 2.069 6.966 23.576 23.576 0 0 0 2.845 5.16c9.827-3.354 3.879-8.385 1.81-10.578l1.422-3.999s2.715-1.806 2.457-3.483-.388-3.483 8.405-3.354l8.405-7.224zm-136.539-82.368c.112.738 1.338 8.684 2.448 10.775a14.223 14.223 0 0 1 .291 4.249c-5.208-.415-10.636-.637-10.636-.637a1.243 1.243 0 0 1 .278.663l-.818-.184c-.386-.09-.785-.188-1.191-.292l9.602-14.596zm-19.016 30.252l9.019 1.428.756.12a29.889 29.889 0 0 0-.467 4.259c.027.134.203.297.493.482a11.79 11.79 0 0 0-.175 2.134c.143.713 4.361 2.255 9.196 3.535l-.198.74c-4.271-2.248-10.997-3.297-11.773-4.965l-23.663-9.667s-.837-.443-2.28-1.139l6.031 1.14 1.656-.168a90.239 90.239 0 0 0 11.405 2.102z" transform="translate(-28 -62.644)" fill="url(#b)"/><path d="M1035.393 721.954s-3.588 21.658-21.786 24.862l-78.943 2.563s-34.73-4.998-47.289-34.345-20.633-41.009-9.868-41.522 68.818 19.608 72.15 19.864 88.939-44.597 85.735 28.578z" fill="#65617d"/><path d="M1035.393 721.954s-3.588 21.658-21.786 24.862l-78.943 2.563s-34.73-4.998-47.289-34.345-20.633-41.009-9.868-41.522 68.818 19.608 72.15 19.864 88.939-44.597 85.735 28.578z" opacity=".05"/><path d="M900.488 808.691s1.811 4.775 6.801 5.117a8.856 8.856 0 0 0 2.191-.119c6.663-1.153 22.299-3.845 27.808-2.818 3.314.615 9.446-.296 13.814-1.123 2.903-.546 5.025-1.057 5.025-1.057s-5.125-17.043-5.767-17.558c-.638-.511-23.068-13.967-23.068-13.967l-17.758-1.276-.054-.004a9.353 9.353 0 0 0-6.021 3.537c-1.876 2.268-3.483 5.994-3.591 12.095-.258 14.994.619 17.174.619 17.174z" transform="translate(-28 -62.644)" fill="#3f3d56"/><path d="M900.488 808.691s1.811 4.775 6.801 5.117a73.228 73.228 0 0 1-4.825-7.039l.096-12.43a21.898 21.898 0 0 1 6.974-18.45l-.054-.004s-9.354.638-9.612 15.632l.619 17.174z" transform="translate(-28 -62.644)" opacity=".05"/><path d="M949.53 718.877l16.532-12.941 26.016-25.632s-2.81-.135-7.051-.319c-1.053.673-4.01 2.787-4.118 5.356-.127 3.133-7.032.219-10.619 2.011-3.587 1.795-21.145 24.263-24.221 24.117-3.076-.15-5.509-1.561-6.793.619l-.092.142z" opacity=".1"/><path d="M903.46 779.422q.882.427 1.792.819c12.56 5.382 28.066 16.659 29.219 18.712.704 1.246 9.692 6.705 16.632 10.796 2.903-.546 5.025-1.057 5.025-1.057s-5.125-17.043-5.767-17.558c-.638-.511-23.068-13.967-23.068-13.967l-17.758-1.276-.054-.004a9.353 9.353 0 0 0-6.021 3.537z" transform="translate(-28 -62.644)" opacity=".1"/><path d="M868.601 742.691c1.665 4.102 15.632 19.865 15.632 19.865s8.843 11.534 21.403 16.916 28.066 16.659 29.219 18.712c.742 1.319 10.75 7.347 17.804 11.488l1.58.923c1.38.804 2.584 1.503 3.499 2.03 1.153.669 1.849 1.065 1.849 1.065s4.291-3.445 8.566-6.913c4.218-3.422 8.416-6.863 8.481-7.055.127-.384 1.792-4.744 1.407-4.998-.2-.135-1.08-1.907-2.699-3.964a18.136 18.136 0 0 0-6.528-5.394c-5.894-2.691-8.458-8.819-8.458-8.819s-.561-.408-1.411-.946a17.134 17.134 0 0 0-5.763-2.568c-2.822-.354-8.074-6.121-8.074-6.121s-3.591-2.307-4.998-5.252c-1.346-2.81-21.222-16.463-23.064-17.724l48.184 30.945 11.53 7.409 16.532-12.941 26.016-25.632s-3.499-.169-8.585-.388c-12.645-.546-35.101-1.403-37.935-.765a21.62 21.62 0 0 1-7.051.461s-6.397.288-10.63-1.945-10.899-3.276-11.668-4.933l-23.452-9.604s-30.884-16.401-41.906-6.663c-11.019 9.738-11.149 18.712-9.481 22.81z" transform="translate(-28 -62.644)" fill="#65617d"/><path d="M968.176 648.629l3.972 13.199 5.125 29.73 18.839 1.284 5.455-9.046 5.44-9.023s3.391-12.014 5.828-23.637c2.157-10.284 3.564-20.261 1.219-21.345-2.08-.961-3.449-4.425-4.337-8.147-.112-.461-.215-.93-.308-1.396a72.593 72.593 0 0 1-1.249-9.554s-39.473-2.049-33.963 14.225a25.9 25.9 0 0 1 1.488 8.654 20.171 20.171 0 0 1-.135 2.203 18.452 18.452 0 0 1-7.374 12.853z" transform="translate(-28 -62.644)" fill="#ee8e9e"/><path d="M959.972 646.449l1.411 22.426 3.203 19.096 3.591 8.843 3.203 48.381s30.899 3.572 38.415-.065a3.287 3.287 0 0 0 1.361-1.061c9.077-13.706 6.101-53.405 6.101-53.405l3.46-25.632-2.307-13.302-5.575-.592-4.291-.458s-.969 1.192-2.368 3.041c-3.798 5.017-10.788 14.882-10.319 19 .638 5.64-.769 11.407-2.949 12.303-2.18.9-3.972 2.438-4.356.9s-.769-1.922-.384-4.102l-1.669-8.843s-3.46-7.816-3.203-11.149-.384-7.178-1.411-8.074c-1.023-.896-2.434-1.795-1.28-5.894 1.153-4.102-5.056-12.084-5.056-12.084z" transform="translate(-28 -62.644)" fill="#e3e8f4"/><path d="M1000.789 702.459l1.284 38.319s2.91 1.611 7.401 4.102a3.287 3.287 0 0 0 1.361-1.061c9.077-13.706 6.101-53.405 6.101-53.405l3.46-25.632-2.307-13.302-5.575-.592c2.157-10.284 3.564-20.261 1.219-21.345-2.08-.961-3.449-4.425-4.337-8.147l-3.995 27.112s.334 2.441.454 4.963a14.205 14.205 0 0 1-.323 4.775c-.9 2.307-.258 6.409-.258 6.409-2.311 4.071-3.464 11.611-4.029 18.892-.75 9.684-.457 18.912-.457 18.912z" transform="translate(-28 -62.644)" opacity=".1"/><path d="M1009.519 620.784s6.457.803 8.507 3.494l7.433 3.076s6.151 2.05 6.023 2.563 1.794 1.282 5.639 2.307 10.252 4.742 10.252 5.639 10.124 10.893 10.124 11.918 3.076 4.87 2.691 11.662-.769 15.378.769 16.788v6.92a3.786 3.786 0 0 0-.128 4.101c1.282 2.307-.256 11.918-.256 11.918l.128 9.996s-1.41 6.28.256 6.536l-.256 3.076s-1.41 5.126.384 7.433l2.307 12.175 27.425 39.856s.384 7.305-8.33 7.177-8.586 1.666-8.33 3.332l-2.435 3.46s-3.46 1.794-1.41 3.973 7.946 7.177-1.794 10.509a23.436 23.436 0 0 1-2.819-5.126 57.791 57.791 0 0 1-2.05-6.92s-.897-9.74-2.691-11.021l-1.538-7.433s2.563-4.998-1.025-7.048l-55.619-30.885-1.282-38.318s-.897-28.322 4.485-37.805c0 0-.641-4.101.256-6.408l-.128-9.74z" transform="translate(-28 -62.644)" fill="#3f3d56"/><path d="M947.933 573.516s-12.884-2.654-16.344-.86-10.252 3.204-11.278 4.229-3.588.256-5.895 6.28-2.563 12.175-5.511 14.994-4.485 4.742-4.614 6.792.384 2.563-.769 3.204-2.819 3.332-2.307 4.357l26.656 23.58s1.282 8.586 2.435 10.765-1.282 32.167-3.845 34.217l17.301 1.861s.897-19.675 1.666-20.7l-.513-22.042s-.128-17.942 1.538-22.683l1.478-20.505s1.473-9.46 3.263-11.662l-3.263-11.827z" opacity=".1"/><path d="M947.548 573.131s-12.884-2.654-16.344-.86-10.252 3.204-11.278 4.229-3.588.256-5.895 6.28-2.563 12.175-5.511 14.994-4.485 4.742-4.614 6.792.384 2.563-.769 3.204-2.819 3.332-2.307 4.357l26.656 23.58s1.282 8.586 2.435 10.765-1.282 32.167-3.845 34.217l17.301 1.861s.897-19.675 1.666-20.7l-.513-22.042s-.128-17.942 1.538-22.683l1.478-20.505s1.473-9.46 3.263-11.662l-3.263-11.827z" fill="#3f3d56"/><path d="M974.197 624.919a25.9 25.9 0 0 1 1.488 8.654 29.389 29.389 0 0 0 33.725-13.325 72.593 72.593 0 0 1-1.249-9.554s-39.473-2.049-33.963 14.225z" transform="translate(-28 -62.644)" opacity=".1"/><path d="M954.72 604.67a29.33 29.33 0 1 0 .638-6.101 29.347 29.347 0 0 0-.638 6.101z" transform="translate(-28 -62.644)" fill="#ee8e9e"/><path d="M935.88 672.592l-7.048 2.179s.641 2.563-1.41 3.845a4.287 4.287 0 0 0-1.794 3.845s-.769 2.819-2.563 3.46l-2.948 4.87-5.895 6.792s-2.179 1.794-1.794 2.691l-2.307 1.153 1.41 22.811 12.175 2.307 7.561-.769 6.151-2.307 5.382-3.204 2.435-6.28 10.765-16.404z" transform="translate(-28 -62.644)" fill="#3f3d56"/><path d="M883.915 640.577s-15.635-22.555-27.297-10.38 4.742 31.91 8.586 31.269l22.171-1.666z" fill="#ee8e9e"/><rect x="858.905" y="672.364" width="81.833" height="63.539" rx="1.544" transform="translate(390.392 -394.71) rotate(27.036)" fill="#3f3d56"/><path fill="#6c63ff" d="M853.01 603.272l61.286 31.296-23.583 46.181-61.286-31.296z"/><circle cx="838.908" cy="624.556" r="1.128" fill="#e6e8ec"/><circle cx="905.225" cy="658.536" r="1.86" fill="#e6e8ec"/><path d="M873.791 645.318c-.127 16.916 34.859 20.503 34.859 20.503l8.939 1.419 4.002.634 1.669-16.532s-1.834-.273-4.125-.807c-3.387-.788-7.774-2.153-8.693-4.064-1.538-3.203-36.524-18.07-36.651-1.153z" fill="#ee8e9e"/><path d="M955.358 598.568a3.477 3.477 0 0 1 2.145.961c.992 1.05 1.046 2.91 2.334 3.556a2.599 2.599 0 0 0 1.53.177c3.406-.481 5.379-4.329 8.65-5.386a8.695 8.695 0 0 1 5.732.492 4.27 4.27 0 0 1 1.899 1.219c1.096 1.419.327 3.502.834 5.217.704 2.38 3.545 3.326 6.005 3.637s5.233.484 6.874 2.341a6.23 6.23 0 0 1 1.223 4.96 3.895 3.895 0 0 0-.015 1.834c.677 1.922 4.002 1.638 4.871.119.634-1.103.442-2.018 1.938-2.326a6.369 6.369 0 0 1 3.137.542 23.033 23.033 0 0 0 8.116 1.246 29.351 29.351 0 1 0-55.274-18.589z" transform="translate(-28 -62.644)" opacity=".1"/><path d="M992.569 616.809a3.946 3.946 0 0 1 .015-1.836 6.232 6.232 0 0 0-1.22-4.958c-1.643-1.859-4.415-2.033-6.877-2.344s-5.3-1.254-6.005-3.633c-.508-1.715.26-3.802-.834-5.217a4.228 4.228 0 0 0-1.897-1.219 8.706 8.706 0 0 0-5.734-.495c-3.272 1.058-5.245 4.907-8.65 5.388a2.605 2.605 0 0 1-1.53-.177c-1.289-.646-1.344-2.506-2.334-3.554-1.556-1.648-4.508-.583-6.414-1.808-1.244-.799-1.721-2.358-2.07-3.795-.677-2.785-1.22-5.708-.567-8.499 1.115-4.767 5.373-8.035 8.094-12.105 2.536-3.793 3.959-8.597 7.769-11.109 3.743-2.467 8.701-1.942 12.999-.668a38.109 38.109 0 0 0 6.09 1.597c3.464.426 6.942-.515 10.43-.636a22.419 22.419 0 0 1 13.775 4.187 7.561 7.561 0 0 1 2.247 2.275 11.657 11.657 0 0 1 1.001 4.08 20.817 20.817 0 0 0 2.705 7.497c1.079 1.802 2.43 3.438 3.402 5.3a8.15 8.15 0 0 1 .92 6.07c-.33 1.059-.976 2.008-1.223 3.089-.57 2.503 1.078 4.894 2.203 7.201a13.514 13.514 0 0 1 1.498 6.829 8.612 8.612 0 0 1-3.071 6.146 11.035 11.035 0 0 1-6.497 1.969 23.045 23.045 0 0 1-8.277-1.243 6.408 6.408 0 0 0-3.137-.542c-1.496.307-1.304 1.223-1.938 2.327-.871 1.518-4.193 1.803-4.873-.118z" transform="translate(-28 -62.644)" fill="#3f3d56"/><path d="M976.761 782.29l16.532-12.941 26.016-25.632s-3.499-.169-8.585-.388a5.617 5.617 0 0 0-1.815 3.502c-.127 3.133-7.032.219-10.619 2.011-3.587 1.795-21.145 24.263-24.221 24.117-3.076-.15-5.509-1.561-6.793.619l-.092.142a3.647 3.647 0 0 1-1.953 1.161z" transform="translate(-28 -62.644)" opacity=".1"/><path d="M943.44 781.395l8.308 26.516 1.303 4.164 3.952-1.084 8.723-2.395 38.842-10.669a33.701 33.701 0 0 0 13.979-3.729 42.35 42.35 0 0 1 24.137-5.263c5.135.481 10.844-1.736 15.582-10.489 0 0 10.765-31.78-16.405-40.88-27.166-9.1-28.465 4.837-28.465 4.837l-.369.227c-1.053.673-4.01 2.787-4.118 5.356-.127 3.133-7.032.219-10.619 2.011-3.587 1.795-21.145 24.263-24.221 24.117-3.076-.15-5.509-1.561-6.793.619l-.092.142c-.95 1.307-3.802 1.611-5.69 1.665-1.03.031-1.776-.015-1.776-.015l-.242.073-1.972.588z" transform="translate(-28 -62.644)" fill="#65617d"/><path d="M917.589 667.24l4.002.634 1.669-16.532s-1.834-.273-4.125-.807c.607 2.307-.769 11.222-1.546 16.705z" opacity=".1"/><path d="M1050.38 652.637s11.918-3.46 8.971 30.372l-24.99 55.234s-25.374 11.149-36.78 9.355l-19.736-2.179a28.972 28.972 0 0 0-11.534-3.076c-6.408-.256-19.864-4.229-20.12-5.511s3.332-20.12 1.794-21.53c0 0 17.942.735 19.736 2.034s4.357.368 6.28 0 7.817-5.494 19.479-1.008c0 0 3.973.384 5.511-.641l4.008-.256a11.28 11.28 0 0 0 2.784-1.41c.384-.513 3.46 0 3.46 0a1.363 1.363 0 0 0 1.922-.897 8.384 8.384 0 0 1 1.794-2.819s3.46-19.479 9.996-26.784c0 0 1.922-1.666 1.41-3.716s10.637-31.269 26.015-27.169z" transform="translate(-28 -62.644)" opacity=".1"/><path d="M1050.065 650.037s11.918-3.46 8.971 30.372l-24.99 55.234s-25.374 11.149-36.78 9.355l-19.736-2.179a28.972 28.972 0 0 0-11.534-3.076c-6.408-.256-19.864-4.229-20.12-5.511s3.332-20.12 1.794-21.53c0 0 17.942.735 19.736 2.034s4.357.368 6.28 0 7.817-5.494 19.479-1.008c0 0 3.973.384 5.511-.641l4.008-.256a11.28 11.28 0 0 0 2.784-1.41c.384-.513 3.46 0 3.46 0a1.363 1.363 0 0 0 1.922-.897 8.384 8.384 0 0 1 1.794-2.819s3.46-19.479 9.996-26.784c0 0 1.922-1.666 1.41-3.716s10.637-31.269 26.015-27.169z" transform="translate(-28 -62.644)" fill="#3f3d56"/><path d="M957.503 777.185l16.928 20.48a.515.515 0 0 0 .108-.119c.127-.384 1.792-4.744 1.407-4.998-.384-.258-3.329-6.667-9.227-9.358a17.522 17.522 0 0 1-7.243-6.594zm.235 35.439c1.153.669 1.849 1.065 1.849 1.065s4.291-3.445 8.566-6.913c4.218-3.422 8.416-6.863 8.481-7.055.127-.384 1.792-4.744 1.407-4.998-.2-.135-1.08-1.907-2.699-3.964-11.476-3.214-4.168 4.752-3.195 5.117 0 0-13.967-3.206-14.736 12.011a17.867 17.867 0 0 0 .327 4.737z" transform="translate(-28 -62.644)" opacity=".1"/><path d="M971.89 819.072l2.437 1.411 24.732.638a49.774 49.774 0 0 0 8.754 4.214 7.791 7.791 0 0 0 1.242.273 56.686 56.686 0 0 0 6.893.131c1.895-.05 3.36-.131 3.36-.131s-1.169-31.191-2.053-34.475c-.423-1.569-2.495-1.223-4.541-.438a30.048 30.048 0 0 0-4.429 2.241s-10.507 1.019-12.176 1.922c-1.665.903-6.405-.519-9.354 0l-8.201-3.468c-14.356-4.74-6.282 4.102-5.256 4.487 0 0-13.967-3.206-14.736 12.011-.769 15.213 13.326 11.184 13.326 11.184z" transform="translate(-28 -62.644)" fill="#3f3d56"/><path d="M979.645 744.382c.269 6.455 5.302 14.471 8.304 18.712 1.895-.05 3.36-.131 3.36-.131s-1.169-31.191-2.053-34.475c-.423-1.569-2.495-1.223-4.541-.438-2.484 4.652-5.286 11.126-5.071 16.332z" fill="#565387"/><path d="M979.645 744.382c.269 6.455 5.302 14.471 8.304 18.712 1.895-.05 3.36-.131 3.36-.131s-1.169-31.191-2.053-34.475c-.423-1.569-2.495-1.223-4.541-.438-2.484 4.652-5.286 11.126-5.071 16.332z" opacity=".1"/><path d="M1003.416 807.884c1.703 6.232 1.684 13.222 4.398 17.451a7.791 7.791 0 0 0 1.242.273 56.686 56.686 0 0 0 6.893.131c1.895-.05 3.36-.131 3.36-.131s-1.169-31.191-2.053-34.475c-.423-1.569-2.495-1.223-4.541-.438a30.048 30.048 0 0 0-4.429 2.241s-7.047 6.966-4.871 14.948z" transform="translate(-28 -62.644)" opacity=".05"/><path d="M890.089 682.009s12.285 3.993 22.695 18.156z" opacity=".1"/><path d="M1017.918 590.877l-.074.272a9.062 9.062 0 0 1-.427 1.069 7.816 7.816 0 0 1 .501-1.341zm-69.506-6.217a11.694 11.694 0 0 1 .955-2.589c-.067.22-.133.44-.186.667-.653 2.791-.11 5.714.567 8.499.349 1.437.826 2.996 2.07 3.795 1.907 1.225 4.859.16 6.415 1.808.99 1.049 1.045 2.908 2.334 3.554a2.605 2.605 0 0 0 1.53.177c3.405-.481 5.378-4.33 8.65-5.388a8.706 8.706 0 0 1 5.734.495 4.229 4.229 0 0 1 1.897 1.219c1.094 1.415.326 3.502.834 5.217.705 2.379 3.543 3.322 6.005 3.633s5.234.485 6.877 2.344a6.232 6.232 0 0 1 1.22 4.958 3.946 3.946 0 0 0-.015 1.836c.679 1.921 4.002 1.636 4.873.118.634-1.105.442-2.02 1.938-2.327a6.408 6.408 0 0 1 3.137.542 23.045 23.045 0 0 0 8.277 1.243 11.035 11.035 0 0 0 6.497-1.969 7.656 7.656 0 0 0 1.994-2.423 8.199 8.199 0 0 1-2.763 4.345 11.035 11.035 0 0 1-6.497 1.969 23.045 23.045 0 0 1-8.277-1.243 6.408 6.408 0 0 0-3.137-.542c-1.496.307-1.304 1.223-1.938 2.327-.871 1.518-4.193 1.803-4.873-.118a3.946 3.946 0 0 1 .015-1.836 6.232 6.232 0 0 0-1.22-4.958c-1.643-1.859-4.415-2.033-6.877-2.344s-5.3-1.254-6.005-3.633c-.508-1.715.26-3.802-.834-5.217a4.229 4.229 0 0 0-1.897-1.219 8.706 8.706 0 0 0-5.734-.495c-3.272 1.058-5.245 4.907-8.65 5.388a2.605 2.605 0 0 1-1.53-.177c-1.289-.646-1.344-2.506-2.334-3.554-1.556-1.648-4.508-.583-6.415-1.808-1.244-.799-1.721-2.358-2.07-3.795-.677-2.785-1.22-5.708-.567-8.499z" transform="translate(-28 -62.644)" opacity=".1"/><path d="M991.904 624.588c-2.346 3.17-5.027 6.101-7.105 9.454s-3.545 7.267-3.114 11.188c2.149-2.205 3.134-5.253 4.49-8.018 2.296-4.684 5.728-8.655 8.621-12.961.554-.825 4.093-5.575 2.302-5.802-1.48-.188-4.393 5.058-5.194 6.14z" opacity=".1"/><ellipse cx="311.5" cy="523.856" rx="121" ry="114" fill="#f1f1f1"/><path d="M523.121 726.219l-100.102-29.844a152.88 152.88 0 0 1-66.52 15.125c-78.299 0-142-58.318-142-130s63.701-130 142-130 142 58.318 142 130c0 36.187-16.613 70.913-45.625 95.475zm-100.278-31.983l.375.111 88.662 26.434-62.291-43.667 1.007-.837c29.173-24.226 45.904-58.771 45.904-94.776 0-70.58-62.804-128-140-128s-140 57.42-140 128 62.804 128 140 128a150.823 150.823 0 0 0 65.992-15.092z" transform="translate(-28 -62.644)" fill="#2f2e41"/><circle cx="281" cy="526.356" r="11" fill="#6c63ff"/><circle cx="313" cy="526.356" r="11" fill="#6c63ff"/><circle cx="345" cy="526.356" r="11" fill="#6c63ff"/><path d="M291.731 466.552c6.889 4.616 17.335 2.418 17.335 2.418s15.779-7.473 20.446-7.473l16.001-4.616-.382-3.112-1.157-9.376c7.182 5.597 15.163 3.666 19.096 3.257 4.223-.44 26.775-13.847 28.945-14.726a5.739 5.739 0 0 0 1.978-1.996h.004a50.81 50.81 0 0 0 3.818-6.976l-.003.001c1.414-1.243 2.445-2.242 2.372-2.458a15.535 15.535 0 0 1 1.381-3.691 18.083 18.083 0 0 0 6.842-2.464 6.213 6.213 0 0 0 .947-.958 6.083 6.083 0 0 0 1.276-3.877s22.002-22.199 19.113-31.431l7.112-9.451s15.335-6.594 17.468-10.55c1.316-2.435 12.814-7.776 21.473-11.53l1.064-.459c3.366 7.363 20.418 1.698 23.778-1.418 3.556-3.297 14.001-4.835 14.001-4.835s.445-43.08 3.778-48.575c1.582-2.607 1.965-11.113 1.925-19.329l-.005-.875c4.669-.91 15.773-3.021 20.932-3.534 3.27-.325 6.675-2.362 9.288-4.343l.308.387a6.418 6.418 0 0 0 2.843.468 4.4 4.4 0 0 0 2.49-.468c2-1.099 9.334-3.297 12.001-4.396s-.444-9.012-2.445-10.55-3.334-3.517-2.222-4.396-2.667-3.077-4.889-3.517l-8.89-3.517s-2.445-5.055-6.445-5.055l-9.334-3.956c-.222-1.758-4.445-1.978-4.445-1.978s-16.001-12.309-18.668-10.77l-10.001-2.418s-8.995 1.007-11.112-.649v-.01a2.528 2.528 0 0 0-.534-1.492c-.479-1.485-2.803-3.525-5.057-5.223a19.823 19.823 0 0 0 .257-3.175c0-.462-.018-.923-.049-1.376l-.021-.227.314-3.095a6.415 6.415 0 0 1 .777-2.912c.375-.578.927-1.035 1.345-1.587a4.415 4.415 0 0 0 .273-.411l.065-.116.167-.332.051-.114a5.01 5.01 0 0 0 .287-.936l.014-.076.067-.44.007-.061a9.463 9.463 0 0 0-.5-3.774c-.667-2.075-1.709-4.084-1.821-6.249a19.264 19.264 0 0 0-.113-3.221c-.535-2.4-3.008-3.933-5.384-4.928-3.285-1.377-4.942-2.882-7.582-4.929-2.243-1.74-5.943-.866-8.767-.685-6.447.414-12.814 2.354-18.877 4.363a18.766 18.766 0 0 0-6.595 3.274 7.267 7.267 0 0 0-2.414 4.072v-.001.004a5.107 5.107 0 0 0-.073 1.11l.007.099.048.425.022.139a4.532 4.532 0 0 0 .123.503l.003.013c.255.81.731 1.545 1.006 2.349a5.111 5.111 0 0 1 .151.543l.012.059c.037.176.068.353.089.53v-.001c.245 1.999-.492 4.086-.819 6.123-.046.288-.077.581-.1.877v-.001l-.001.01a10.481 10.481 0 0 0 .307 3.51l.01.039.129.417.058.179.134.348.095.23.143.303.129.251.154.269.162.257.166.24.196.254.177.213.233.246.185.184.277.237.187.153.345.235.167.11a5.8 5.8 0 0 0 .56.295c1.276.582 2.883.789 3.656 1.91a2.501 2.501 0 0 1 .374.875l-.006.227v.193c.009.651.044 1.292.111 1.925a7.366 7.366 0 0 0 .058 1.042 3.007 3.007 0 0 0 .218.756 19.937 19.937 0 0 0 6.74 11.32l.228 1.182a22.207 22.207 0 0 1-6.466 3.389c-5.334 1.561-12.89 8.765-12.89 8.765s-3.756 27.035-4.654 30.332c-.902 3.297-1.569 16.045-1.569 16.045s-.889 5.275-2.222 7.913c-.943 1.86-.774 9.846 1.861 14.7a12.413 12.413 0 0 1-1.639 2.664c-5.334 6.154-21.335 5.934-26.669 5.934-4.914 0-6.429 2.978-6.638 3.448-9.764 2.773-41.392 11.801-45.144 13.441-4.445 1.943-6.889 21.136-6.889 21.136s-9.334 31.87-8.89 36.064l-3.111 15.808s0 13.148-1.511 14.041a.118.118 0 0 1-.044.026c-1.556.659-1.333 7.033-1.333 7.033s1.143.331 2.93.783c-.474 3.224-2.222 7.729-3.6 10.927-.692-.875-1.367-1.243-1.774-.22-1.111 2.796-17.779 22.577-22.002 22.577-2.014 0-5.338 1.648-7.525 3.873-2.396 2.444-3.414 5.583.191 7.996zm76.451-114.513c18.89 1.758 39.114-1.341 39.114-1.341s-1.556 5.517-2.889 7.715-5.112 14.726-5.112 17.364-6 25.276-7.778 26.375a6.579 6.579 0 0 0-1.933 2.796 26.23 26.23 0 0 0-1.178 3.358c.026.574.079 1.114.153 1.628-1.328 1.218-2.732 2.492-3.984 3.622v-.001s-7.947 4.422-10.614 6.84l-15.112 5.381a77.136 77.136 0 0 0-8.943 4.563c-3.856 2.327-7.716 5.278-8.722 8.195.435-4.912 1.146-10.829 1.621-14.593l.71-.029c6.227-.387 5.298-6.33 4.969-7.803l-.08-.33c4.445-4.836 14.446-40.882 13.112-44.838s1.111-7.473 1.64-7.473 1.249-4.396.138-6.814l4.889-4.616zm152.761-96.966c-.393.095-.787.19-1.178.291l-.015-.255s.444 0 1.193-.036zm-64.574-33.166c-.178.22-.36.436-.549.641l-.228.237c-.006-.413-.005-.822-.001-1.22q.384.179.777.342zm-22.263 42.642l.081 1.237s-.121.753-.345 2.047zm102.132-12.284l-3.876.668c.55-.207 1.091-.434 1.614-.683a3.699 3.699 0 0 1 1.236-.336 6.738 6.738 0 0 1 1.446.31 3.035 3.035 0 0 0-.42.041z" transform="translate(-28 -62.644)" fill="url(#c)"/><path d="M377.085 348.311s-4.466 9.241-4.248 9.896l-9.598 8.507-10.688-7.634 1.091-5.235s11.997-10.81 12.869-12.058l10.574 6.525z" fill="#be6f72"/><path d="M344.124 442.227c7.416 7.198 16.141 5.017 20.286 4.581s26.28-13.742 28.409-14.614a5.663 5.663 0 0 0 1.941-1.981h.004a50.609 50.609 0 0 0 3.747-6.923c-.148.039-7.403 2.111-9.235-.004 0 0-3.054-3.743-3.708-3.743l-.052-6.57s-7.8 4.389-10.418 6.788l-14.833 5.34a75.375 75.375 0 0 0-8.777 4.528c-5.785 3.529-11.583 8.507-7.364 12.599z" transform="translate(-28 -62.644)" fill="#3f3d56"/><path d="M344.124 442.227c7.416 7.198 16.141 5.017 20.286 4.581s26.28-13.742 28.409-14.614a5.663 5.663 0 0 0 1.941-1.981c-2.583-1.54-19.444 9.179-24.164 11.142-4.716 1.963-16.656.873-23.418-1.963-3.377-1.413.044-5.763 4.31-9.763-5.785 3.529-11.582 8.507-7.364 12.599z" transform="translate(-28 -62.644)" opacity=".1"/><path d="M316.997 356.898s-3.107 23.339-2.317 26.393l-19.496-10.47s7.099-14.625 5.017-17.986l16.796 2.062z" fill="#be6f72"/><path d="M325.583 419.978s12.651 3.708 19.631 3.272c6.112-.384 5.2-6.282 4.877-7.743l-.079-.327c4.363-4.799 14.178-40.571 12.869-44.498s1.091-7.416 1.61-7.416 1.226-4.363.135-6.762l4.799-4.581c18.541 1.745 38.39-1.331 38.39-1.331s-1.527 5.475-2.836 7.656-5.017 14.614-5.017 17.232-5.889 25.084-7.634 26.175a6.53 6.53 0 0 0-1.898 2.775 26.226 26.226 0 0 0-1.156 3.333c.654 14.614 17.232 8.943 19.631 6.98a5.946 5.946 0 0 0 2.181-4.799s21.594-22.031 18.759-31.192l6.98-9.379s15.051-6.544 17.145-10.47c1.291-2.417 12.577-7.717 21.075-11.443 5.322-2.334 9.55-4.044 9.55-4.044l-3.538-12.686-2.788-9.999-5.248-1.972-16.783-6.317-30.132-4.144-2.761.358-29.272 3.787s-42.753 12.215-47.115 14.143l-6.762 20.975s-9.161 31.628-8.725 35.79l-3.054 15.688s0 13.048-1.483 13.934a.116.116 0 0 1-.044.026c-1.527.654-1.309 6.98-1.309 6.98z" transform="translate(-28 -62.644)" fill="#3f3d56"/><path d="M341.427 289.279c18.541 1.745 38.39-1.331 38.39-1.331 1.309-4.123 19.644-15.465 19.644-15.465-15.042-3.708-58.035 16.796-58.035 16.796z" opacity=".1"/><path d="M389.276 407.763c.654 14.614 17.232 8.943 19.631 6.98a6.133 6.133 0 0 0 .929-.951c-5.793 2.133-16.063 3.782-19.404-9.362a26.226 26.226 0 0 0-1.156 3.333zm-63.693 12.215s12.651 3.708 19.631 3.272c6.112-.384 5.2-6.282 4.877-7.743-6.404-.201-17.433-.803-23.156-2.535a.116.116 0 0 1-.044.026c-1.527.654-1.309 6.98-1.309 6.98z" transform="translate(-28 -62.644)" fill="#444053"/><path d="M389.276 407.763c.654 14.614 17.232 8.943 19.631 6.98a6.133 6.133 0 0 0 .929-.951c-5.793 2.133-16.063 3.782-19.404-9.362a26.226 26.226 0 0 0-1.156 3.333zm-63.693 12.215s12.651 3.708 19.631 3.272c6.112-.384 5.2-6.282 4.877-7.743-6.404-.201-17.433-.803-23.156-2.535a.116.116 0 0 1-.044.026c-1.527.654-1.309 6.98-1.309 6.98z" transform="translate(-28 -62.644)" opacity=".1"/><path d="M266.391 402.922c6.762 4.581 17.014 2.399 17.014 2.399s15.487-7.416 20.068-7.416l15.705-4.581-.375-3.089-1.806-14.798s-16.988-.436-17.668-1.963c0 0-3.054-7.512-4.144-4.738s-17.45 22.406-21.594 22.406c-1.976 0-5.239 1.636-7.386 3.843-2.351 2.426-3.35 5.54.188 7.935z" fill="#3f3d56"/><path d="M325.067 274.01s14.178 8.943 10.252 10.906l-10.252-10.906zm-5.889 17.232s12.215 11.596 7.634 11.906l-7.634-11.906zm-13.088 36.863s6.201 11.657 3.864 13.681l-3.864-13.681zm68.274 11.779c-2.181 2.181 20.722-7.198 15.487-7.634l-15.487 7.634z" opacity=".1"/><path d="M448.17 238.934l.729-.109c2.713-.414 12.547-1.959 21.368-3.874 2.151-.467 4.236-.955 6.147-1.457 6.758-1.771 11.29-3.682 8.402-5.248-3.826-2.077-5.841-5.85-6.906-9.096-.1-.318-.196-.628-.284-.934a23.974 23.974 0 0 1-.881-5.021s-24.648-8.725-19.849 0c2.356 4.28.772 7.774-1.453 10.221a19.143 19.143 0 0 1-5.309 3.957z" transform="translate(-28 -62.644)" fill="#be6f72"/><path d="M446.563 169.528s-8.817 6.326-17.823 1.091l-20.785 46.243-12.215 30.101s-7.914 6.544 1.933 9.379 31.694-2.836 37.238 5.453 16.05 9.598 17.123 9.598l5.23-31.192 1.078-45.152z" opacity=".1"/><path d="M426.109 317.241c9.846 2.836 31.694-2.836 37.238 5.453a21.301 21.301 0 0 0 9.384 7.552 24.572 24.572 0 0 0 7.739 2.046c.144 0 .349-.571.589-1.562 1.536-6.313 4.642-29.63 4.642-29.63l1.078-45.152-10.365-22.454-1.413-3.067a18.784 18.784 0 0 1-4.493 2.186 15.815 15.815 0 0 1-13.332-1.095c-2.644-1.536-5.523 1.81-8.276 7.307-6.627 13.236-12.507 38.935-12.507 38.935l-12.215 30.101a10.583 10.583 0 0 0-.829.794c-1.736 1.828-4.986 6.356 2.761 8.585z" transform="translate(-28 -62.644)" fill="#f3f5f9"/><path d="M473.023 318.759a56.783 56.783 0 0 0-.292 11.487 134.574 134.574 0 0 0 2.05 16.224 6.205 6.205 0 0 0 .266.99c5.322-2.334 9.55-4.044 9.55-4.044l-3.538-12.686c1.536-6.313 4.642-29.63 4.642-29.63l1.078-45.152-10.365-22.454c6.758-1.771 11.29-3.682 8.402-5.248-4.197-2.277-6.217-6.6-7.189-10.029a36.54 36.54 0 0 1-6.199 6.67l-.135.113-.785 7.613-.24 2.338-.502 4.855s2.399 57.367 4.144 60.639.873 9.598-.654 17.014c-.087.419-.161.851-.231 1.3z" transform="translate(-28 -62.644)" opacity=".1"/><path d="M474.127 316.587c-1.527 7.416-.218 19.631 1.527 29.011s20.286 3.272 23.776 0l13.742-4.799s.436-42.753 3.708-48.206c1.553-2.587 1.928-11.028 1.889-19.182-.031-7.325-.393-14.414-.528-16.818l-.052-.864s14.178-23.994 13.96-25.739l-4.363-1.963s-15.705-12.215-18.323-10.688l-9.816-2.399s-9.122 1.034-11.007-.724a.958.958 0 0 1-.336-.803c.214-2.792-9.297-8.756-9.589-8.939 8.014 7.211-4.947 18.323-6.417 19.54l-.135.113-1.527 14.806s2.399 57.367 4.144 60.639.872 9.598-.654 17.014z" transform="translate(-28 -62.644)" fill="#67647e"/><circle cx="446.971" cy="191.625" r="1.091" fill="#444053"/><path d="M472.735 224.887l6.627 6.413 9.715-16.211a.958.958 0 0 1-.336-.803c.214-2.792-9.297-8.756-9.589-8.939 8.014 7.211-4.947 18.323-6.417 19.54z" transform="translate(-28 -62.644)" opacity=".1"/><circle cx="449.153" cy="226.525" r="1.091" opacity=".1"/><circle cx="449.153" cy="226.089" r="1.091" fill="#444053"/><path d="M472.299 224.014l6.627 6.413 9.715-16.211a.958.958 0 0 1-.336-.803c.214-2.792-9.297-8.756-9.589-8.939 8.014 7.211-4.947 18.323-6.417 19.54z" transform="translate(-28 -62.644)" fill="#67647e"/><rect x="465.78" y="253.195" width="15.18" height="32.076" rx="1.699" transform="translate(912.482 486.536) rotate(-178.695)" fill="#3f3d56"/><rect x="465.78" y="253.195" width="15.18" height="32.076" rx="1.699" transform="translate(912.482 486.536) rotate(-178.695)" opacity=".1"/><rect x="465.861" y="253.905" width="15.18" height="32.076" rx="1.699" transform="matrix(-1 -.023 .023 -1 912.628 487.957)" fill="#3f3d56"/><circle cx="445.857" cy="200.642" r="2.385" fill="#67647e"/><path d="M391.676 314.624c5.453 2.399 41.226-3.926 46.461-5.453s12.869-13.306 9.161-21.813l1.309-16.796s7.853-16.796 9.598-20.068 5.383-12.8 5.889-14.396a1.296 1.296 0 0 0-.31-.999c-1.418-2.159-6.888-5.981-6.888-5.981-1.54.558-1.732-3.852-1.671-7.093.035-1.815.144-3.263.144-3.263s-.724.737-1.906 1.741c-.432.362-.925.763-1.47 1.178a22.586 22.586 0 0 1-6.875 3.756c-5.235 1.549-12.651 8.699-12.651 8.699l2.181 33.5s-5.017 31.502-10.252 37.609-20.94 5.889-26.175 5.889l-6.544 3.49z" transform="translate(-28 -62.644)" opacity=".1"/><path d="M391.239 313.315c5.453 2.399 41.226-3.926 46.461-5.453s12.869-13.306 9.161-21.813l1.309-16.796s7.853-16.796 9.598-20.068 5.383-12.8 5.889-14.396a1.296 1.296 0 0 0-.31-.999c-1.418-2.159-6.888-5.981-6.888-5.981-1.54.558-1.732-3.852-1.671-7.093.035-1.815.144-3.263.144-3.263s-.724.737-1.906 1.741c-.432.362-.925.763-1.47 1.178a22.586 22.586 0 0 1-6.875 3.756c-5.235 1.549-12.651 8.699-12.651 8.699l2.181 33.5s-5.017 31.502-10.252 37.609-20.94 5.889-26.175 5.889l-6.544 3.49z" transform="translate(-28 -62.644)" fill="#67647e"/><path d="M422.57 155.681s.205 1.152.55 2.919c1.174 5.99 3.974 19.069 5.994 18.563 1.448-.362 3.896-2.927 5.798-5.143-1.418-2.159-6.888-5.981-6.888-5.981-1.54.558-1.732-3.852-1.671-7.093l-1.762-1.523z" opacity=".1"/><path d="M423.006 154.809s.205 1.152.55 2.919c1.174 5.99 3.974 19.069 5.994 18.563 1.448-.362 3.896-2.927 5.798-5.143-1.418-2.159-6.888-5.981-6.888-5.981-1.54.558-1.732-3.852-1.671-7.093l-1.762-1.523z" fill="#67647e"/><path d="M409.046 219.042s10.906-2.181 13.96-6.98 23.828-8.943 21.293-3.926l-21.293 21.432-8.127 11.64-10.85-2.753-4.569-8.887z" fill="#be6f72"/><path d="M434.849 231.487s-10.562 3.926-12.152 9.161l12.152-9.161zm6.479 6.096s.961 5.45-12.28 5.015z" opacity=".1"/><path d="M526.477 230.427l4.799-.436s5.235 3.926 9.161 3.926l6.326 5.017s6.544 3.054 8.725 3.49 5.889 2.618 4.799 3.49.218 2.836 2.181 4.363 5.017 9.379 2.399 10.47-9.816 3.272-11.779 4.363a5.409 5.409 0 0 1-4.363 0s-11.556-15.051-17.448-12.215l-13.963 2.836-6.326-13.306z" transform="translate(-28 -62.644)" opacity=".1"/><path d="M426.109 302.199a5.831 5.831 0 0 0 4.066 2.827 30.823 30.823 0 0 0 12.704-1.174s-21.974-6.98-.816-23.955h-5.671l-1.889-.715.864-4.52 1.243-40.746-4.581-1.091s-3.686 26.829-4.568 30.101c-.886 3.272-1.54 15.923-1.54 15.923s-.873 5.235-2.181 7.853c-.986 1.968-.733 10.841 2.369 15.496z" transform="translate(-28 -62.644)" fill="#67647e"/><path d="M426.981 302.199a5.831 5.831 0 0 0 4.066 2.827 30.823 30.823 0 0 0 12.704-1.174s-21.974-6.98-.816-23.955h-5.671l-1.889-.715c-3.106 5.501-7.996 15.291-8.393 23.017z" transform="translate(-28 -62.644)" opacity=".1"/><path d="M426.109 302.199a5.831 5.831 0 0 0 4.066 2.827 30.823 30.823 0 0 0 12.704-1.174s-21.974-6.98-.816-23.955h-5.671l-1.889-.715c-3.106 5.501-7.996 15.291-8.393 23.017z" transform="translate(-28 -62.644)" fill="none"/><path d="M426.109 302.199a5.831 5.831 0 0 0 4.066 2.827 30.823 30.823 0 0 0 12.704-1.174s-21.974-6.98-.816-23.955h-5.671l-1.889-.715c-3.106 5.501-7.996 15.291-8.393 23.017z" transform="translate(-28 -62.644)" fill="#67647e"/><path d="M455.442 223.416a19.851 19.851 0 0 0 22.467-4.267c-.1-.318-.196-.628-.284-.934a23.974 23.974 0 0 1-.881-5.021s-24.648-8.725-19.849 0c2.356 4.28.772 7.774-1.453 10.221z" transform="translate(-28 -62.644)" opacity=".1"/><path d="M443.808 204.47v.192c.009.646.044 1.283.109 1.911.065.602.157 1.2.27 1.784a19.856 19.856 0 0 0 38.246 2.565c.131-.384.253-.772.358-1.165a19.756 19.756 0 0 0 .715-5.287c0-.458-.017-.916-.048-1.365a19.849 19.849 0 0 0-39.651 1.365z" transform="translate(-28 -62.644)" fill="#be6f72"/><path d="M443.808 204.662a8.601 8.601 0 0 1 .109 1.911 7.391 7.391 0 0 0 .057 1.034 3.009 3.009 0 0 0 .214.75c.803 1.885 3.42 3.102 5.148 1.889a5.59 5.59 0 0 0 1.549-2.029c1.832-3.407 4.384-7.329 8.398-7.394 1.71-.031 3.32.689 4.973 1.112 1.649.419 3.617.471 4.851-.654.947-.864 1.396-2.343 2.67-2.648 1.291-.31 2.443.864 3.028 2.007.585 1.139 1.047 2.487 2.229 3.076.523.262 1.139.336 1.653.615 2.373 1.3 1.283 5.854 3.747 6.592a1.86 1.86 0 0 0 .236.057l.122-1.222.667-6.653a19.849 19.849 0 0 0-39.651 1.365z" transform="translate(-28 -62.644)" opacity=".1"/><path d="M479.069 174.84c2.332.988 4.76 2.509 5.285 4.891a19.33 19.33 0 0 1 .111 3.197c.109 2.149 1.133 4.143 1.787 6.202s.888 4.462-.423 6.213c-.41.548-.952 1.001-1.32 1.575a6.421 6.421 0 0 0-.762 2.89l-1.078 10.737c-2.769-.516-1.536-5.313-3.984-6.649-.514-.281-1.127-.356-1.652-.618-1.181-.589-1.643-1.934-2.229-3.076s-1.736-2.313-3.029-2.004c-1.27.304-1.72 1.786-2.666 2.649-1.236 1.126-3.203 1.074-4.854.652s-3.262-1.142-4.971-1.113c-4.015.068-6.567 3.988-8.4 7.395a5.549 5.549 0 0 1-1.548 2.032c-1.949 1.371-5.027-.355-5.361-2.642-.187-1.28.212-2.71-.527-3.793-.758-1.112-2.336-1.318-3.588-1.895-3.187-1.469-4.176-5.449-3.646-8.787.382-2.406 1.339-4.882.556-7.198-.27-.798-.737-1.527-.988-2.331-.7-2.245.442-4.723 2.242-6.317a18.34 18.34 0 0 1 6.473-3.249c5.951-1.994 12.2-3.919 18.528-4.33 2.772-.18 6.403-1.047 8.605.68 2.591 2.032 4.217 3.525 7.441 4.891z" transform="translate(-28 -62.644)" fill="#3f3d56"/><circle cx="445.881" cy="174.393" r="1.091" opacity=".1"/><circle cx="445.881" cy="173.957" r="1.091" fill="#444053"/><circle cx="452.861" cy="242.885" r="1.091" opacity=".1"/><circle cx="452.861" cy="242.449" r="1.091" fill="#444053"/><circle cx="449.153" cy="260.989" r="1.091" opacity=".1"/><circle cx="449.153" cy="260.553" r="1.091" fill="#444053"/><path d="M411.663 191.625s-2.399 16.293 0 19.128v-19.128zm71.327 30.253s4.581 9.868 0 19.33-7.416 13.304-5.889 19.345l5.889-38.675zm-216.599 181.044c6.762 4.581 17.014 2.399 17.014 2.399s15.487-7.416 20.068-7.416l15.705-4.581-.375-3.089c-4.52.873-14.798 2.945-15.984 3.961-1.527 1.309-20.286 7.634-20.286 7.634s-12.773-1.597-16.329-6.845c-2.351 2.426-3.35 5.54.188 7.935z" opacity=".1"/><g opacity=".1"><path d="M456.464 118.539c-.012-.236-.012-.474-.009-.711.019.271.023.544.019.817l-.011-.106z"/><path d="M439.858 199.736c1.252.577 2.83.783 3.588 1.895.739 1.083.339 2.514.527 3.793.334 2.287 3.413 4.012 5.361 2.642a5.549 5.549 0 0 0 1.548-2.032c1.832-3.407 4.385-7.327 8.4-7.395 1.709-.029 3.32.692 4.971 1.113s3.618.474 4.854-.652c.947-.863 1.396-2.345 2.666-2.648 1.293-.309 2.443.863 3.029 2.004s1.048 2.487 2.229 3.076c.525.262 1.138.337 1.652.618 2.448 1.337 1.216 6.134 3.984 6.649l1.078-10.737a6.421 6.421 0 0 1 .762-2.89c.368-.574.91-1.027 1.32-1.575a4.804 4.804 0 0 0 .896-2.309 5.58 5.58 0 0 1-.896 4.054c-.41.547-.952 1.001-1.32 1.575a6.421 6.421 0 0 0-.762 2.89l-1.078 10.737c-2.769-.516-1.536-5.313-3.984-6.649-.514-.281-1.127-.356-1.652-.618-1.181-.589-1.643-1.934-2.229-3.076s-1.737-2.313-3.029-2.004c-1.27.304-1.72 1.786-2.666 2.648-1.236 1.126-3.203 1.074-4.854.652s-3.262-1.142-4.971-1.113c-4.015.068-6.567 3.988-8.4 7.395a5.549 5.549 0 0 1-1.548 2.032c-1.949 1.371-5.027-.355-5.361-2.642-.187-1.28.212-2.71-.527-3.793-.758-1.112-2.336-1.318-3.588-1.895-2.915-1.344-3.987-4.786-3.744-7.918.212 2.582 1.365 5.077 3.744 6.173zm-4.078-18.316c.251.804.718 1.533.988 2.331a6.708 6.708 0 0 1 .248 2.868 5.574 5.574 0 0 0-.248-1.123c-.27-.798-.737-1.527-.988-2.331a4.827 4.827 0 0 1-.127-2.276 4.541 4.541 0 0 0 .127.531z" transform="translate(-28 -62.644)"/></g><path d="M471.866 215.762c5.017-1.099 16.796-4.572 16.796-4.572l2.107-.423c-.031-7.325-.393-14.414-.528-16.818l-.052.009s-10.034 3.272-12.433 5.017l-9.816 1.309s-11.561.654-21.158 11.343 20.068 5.235 25.084 4.136z" opacity=".1"/><path d="M548.893 258.94a2.91 2.91 0 0 1 .655 4.89c-2.657 2.2-6.538 4.833-10.24 5.205-6.179.622-21.05 3.604-22.528 3.902l-.234.058c-1.226.36-11.954 3.502-16.681 4.538-5.017 1.099-34.682 6.553-25.084-4.136a33.926 33.926 0 0 1 20.945-11.325 2.724 2.724 0 0 1 .384-.009c1.122.052 7.461.271 9.645-1.317a20.581 20.581 0 0 1 3.609-1.797 69.311 69.311 0 0 1 14.746-4.252l10.261-1.789a2.952 2.952 0 0 1 1.728.22z" transform="translate(-28 -62.644)" fill="#be6f72"/><path d="M527.35 230.427l4.799-.436s5.235 3.926 9.161 3.926l6.326 5.017s6.544 3.054 8.725 3.49 5.889 2.618 4.799 3.49.218 2.836 2.181 4.363 5.017 9.379 2.399 10.47-9.816 3.272-11.779 4.363a5.409 5.409 0 0 1-4.363 0s-11.556-15.051-17.448-12.215l-13.963 2.836-6.326-13.306z" transform="translate(-28 -62.644)" fill="#67647e"/></svg>